<svg viewBox="0 0 96 96" xmlns="http://www.w3.org/2000/svg" xmlns:xlink="http://www.w3.org/1999/xlink" id="Icons_Production_M" overflow="hidden"><style>
.MsftOfcResponsive_Fill_daf49d {
 fill:#DAF49D; 
}
.MsftOfcResponsive_Stroke_daf49d {
 stroke:#DAF49D; 
}
</style>
<g id="Icons"><path d="M16.842 26.007 19.358 60.34 19.58 63.366 22.274 61.966 43.174 51.124 43.174 63.484 46.1 61.969 67 51.127 67 68.018 85 68.018 85 82.018 11 82.018 11 60.267 13.506 26.007ZM11.647 24.007 9 60.194 9 84.023 87 84.023 87 66.023 69 66.023 69 47.836 45.177 60.194 45.177 47.836 21.353 60.194 18.7 24.007Z" class="MsftOfcResponsive_Stroke_daf49d MsftOfcResponsive_Fill_daf49d" stroke="#DAF49D" stroke-width="0.999974" stroke-linecap="butt" stroke-linejoin="miter" stroke-miterlimit="4" stroke-opacity="1" fill="#DAF49D" fill-opacity="1"/><path d="M40.181 28.992C38.4404 28.9971 36.7585 28.3626 35.455 27.209 34.5982 26.4096 33.9864 25.383 33.691 24.249 31.7159 24.2349 29.8179 23.4806 28.372 22.135L25.487 19.4C24.4056 18.502 23.0117 18.0703 21.612 18.2L21.124 18.238C19.4639 18.2993 18.1577 19.677 18.185 21.338L18.185 22.006 16.185 22.006 16.185 21.358C16.1231 18.6367 18.2495 16.3659 20.969 16.249L21.527 16.208C23.4637 16.0451 25.3843 16.6703 26.854 17.942L29.74 20.677C30.9986 21.8435 32.7027 22.4042 34.408 22.213L35.416 22.1 35.516 23.109C35.6113 24.1102 36.0677 25.0426 36.8 25.732 38.8037 27.4783 41.808 27.4098 43.73 25.574 44.0178 25.3012 44.2716 24.9946 44.486 24.661L44.886 24.031 45.603 24.24C47.8577 24.8923 50.2892 24.3069 52 22.7 54.2908 20.6902 54.5187 17.2038 52.5089 14.913 52.5086 14.9127 52.5083 14.9123 52.508 14.912 52.412 14.8027 52.312 14.6977 52.208 14.597 49.6879 12.4032 45.9117 12.4899 43.495 14.797 42.3817 15.8226 40.6707 15.8321 39.546 14.819 37.4996 12.9364 34.3531 12.9325 32.302 14.81L31.902 15.202C30.7892 16.238 29.0677 16.2472 27.944 15.223 26.5725 13.9765 24.7853 13.2865 22.932 13.288L22.216 13.303C17.886 13.1817 14.2708 16.5798 14.124 20.909L14.124 22.003 12.124 22.003 12.124 20.882C12.3322 15.4914 16.7937 11.2462 22.188 11.306L22.916 11.291C25.2792 11.2889 27.5578 12.1698 29.305 13.761 29.6492 14.0768 30.1778 14.0768 30.522 13.761L30.922 13.369C33.7364 10.7737 38.0692 10.765 40.894 13.349 41.2481 13.6633 41.7825 13.6594 42.132 13.34 45.3161 10.3242 50.2749 10.2352 53.565 13.135 53.739 13.301 53.876 13.445 54.008 13.594 56.7445 16.702 56.4497 21.4383 53.349 24.183 51.3109 26.0839 48.4813 26.8855 45.749 26.336 45.5536 26.5792 45.3421 26.8091 45.116 27.024 43.7877 28.294 42.0187 28.9994 40.181 28.992Z" class="MsftOfcResponsive_Stroke_daf49d MsftOfcResponsive_Fill_daf49d" stroke="#DAF49D" stroke-width="0.999974" stroke-linecap="butt" stroke-linejoin="miter" stroke-miterlimit="4" stroke-opacity="1" fill="#DAF49D" fill-opacity="1"/><path d="M24.647 71.9 24.647 75.843 18.059 75.843 18.059 71.9ZM16.059 69.9 16.059 77.843 26.647 77.843 26.647 69.9Z" class="MsftOfcResponsive_Stroke_daf49d MsftOfcResponsive_Fill_daf49d" stroke="#DAF49D" stroke-width="0.999974" stroke-linecap="butt" stroke-linejoin="miter" stroke-miterlimit="4" stroke-opacity="1" fill="#DAF49D" fill-opacity="1"/><path d="M42.3 71.9 42.3 75.843 35.707 75.843 35.707 71.9ZM33.712 69.9 33.712 77.843 44.3 77.843 44.3 69.9Z" class="MsftOfcResponsive_Stroke_daf49d MsftOfcResponsive_Fill_daf49d" stroke="#DAF49D" stroke-width="0.999974" stroke-linecap="butt" stroke-linejoin="miter" stroke-miterlimit="4" stroke-opacity="1" fill="#DAF49D" fill-opacity="1"/><path d="M59.943 71.9 59.943 75.843 53.354 75.843 53.354 71.9ZM51.354 69.9 51.354 77.843 61.943 77.843 61.943 69.9Z" class="MsftOfcResponsive_Stroke_daf49d MsftOfcResponsive_Fill_daf49d" stroke="#DAF49D" stroke-width="0.999974" stroke-linecap="butt" stroke-linejoin="miter" stroke-miterlimit="4" stroke-opacity="1" fill="#DAF49D" fill-opacity="1"/></g></svg>