<svg viewBox="0 0 96 96" xmlns="http://www.w3.org/2000/svg" xmlns:xlink="http://www.w3.org/1999/xlink" id="Icons_Globe_M" overflow="hidden"><style>
.MsftOfcResponsive_Fill_daf49d {
 fill:#DAF49D; 
}
.MsftOfcResponsive_Stroke_daf49d {
 stroke:#DAF49D; 
}
</style>
<g id="Icons"><path d="M58.049 5.755C57.5348 5.55314 56.9544 5.80632 56.7525 6.3205 56.5506 6.83468 56.8038 7.41514 57.318 7.617 76.0863 14.9732 85.3377 36.1512 77.9815 54.9195 70.6253 73.6878 49.4473 82.9392 30.679 75.583 30.1648 75.3811 29.5844 75.6343 29.3825 76.1485 29.1806 76.6627 29.4338 77.2431 29.948 77.445 34.1116 79.0783 38.5289 79.9701 43 80.08L43 87.1 30.5 87.1C28.2909 87.1 26.5 88.8909 26.5 91.1L28.5 91.1C28.5 89.9954 29.3954 89.1 30.5 89.1L57.5 89.1C58.6046 89.1 59.5 89.9954 59.5 91.1L61.5 91.1C61.5 88.8909 59.7091 87.1 57.5 87.1L45 87.1 45 80.062C66.2472 79.5203 83.0324 61.8569 82.4907 40.6097 82.0961 25.1327 72.4655 11.3991 58.049 5.755Z" class="MsftOfcResponsive_Stroke_daf49d MsftOfcResponsive_Fill_daf49d" stroke="#DAF49D" stroke-width="0.999974" stroke-linecap="butt" stroke-linejoin="miter" stroke-miterlimit="4" stroke-opacity="1" fill="#DAF49D" fill-opacity="1"/><rect x="19.5" y="92.1" width="49" height="2" class="MsftOfcResponsive_Stroke_daf49d MsftOfcResponsive_Fill_daf49d" stroke="#DAF49D" stroke-width="0.999974" stroke-linecap="butt" stroke-linejoin="miter" stroke-miterlimit="4" stroke-opacity="1" fill="#DAF49D" fill-opacity="1"/><path d="M31.631 71.654C48.2296 78.4849 67.223 70.5666 74.0539 53.968 80.8848 37.3693 72.9665 18.3759 56.3679 11.545 39.7693 4.71416 20.7759 12.6324 13.945 29.231 7.05799 45.6951 14.8218 64.625 31.2859 71.512 31.4007 71.56 31.5157 71.6073 31.631 71.654ZM45.305 41.054 56.165 14.667C61.41 23.677 62.115 35.519 57.994 46.276ZM57.233 48.126C52.588 58.666 43.752 66.581 33.685 69.29L44.544 42.905ZM43.456 40.3 30.767 35.072C35.412 24.532 44.248 16.617 54.315 13.908ZM42.7 42.144 31.835 68.531C26.59 59.521 25.885 47.679 30.006 36.922ZM35.42 70.868C45.571 67.708 54.386 59.574 59.082 48.889L71.8 54.123C65.5368 67.9869 50.0247 75.1268 35.42 70.868ZM72.562 52.274 59.843 47.039C64.03 36.139 63.493 24.162 58.507 14.772 71.8786 22.0272 77.8715 38.0175 72.562 52.274ZM44.039 11.1C46.9293 11.101 49.8045 11.5162 52.577 12.333 42.427 15.494 33.613 23.627 28.918 34.311L16.211 29.082C21.1472 18.1401 32.0352 11.1044 44.039 11.1ZM15.439 30.926 28.158 36.161C23.971 47.056 24.508 59.038 29.494 68.428 16.122 61.1731 10.1287 45.1827 15.438 30.926Z" class="MsftOfcResponsive_Stroke_daf49d MsftOfcResponsive_Fill_daf49d" stroke="#DAF49D" stroke-width="0.999974" stroke-linecap="butt" stroke-linejoin="miter" stroke-miterlimit="4" stroke-opacity="1" fill="#DAF49D" fill-opacity="1"/></g></svg>