<svg viewBox="0 0 96 96" xmlns="http://www.w3.org/2000/svg" xmlns:xlink="http://www.w3.org/1999/xlink" id="Icons_Stopwatch3_M" overflow="hidden"><style>
.MsftOfcThm_Text2_Fill_v2 {
 fill:#252845; 
}
.MsftOfcThm_Text2_Stroke_v2 {
 stroke:#252845; 
}
</style>
<path d="M69.456 27.958 73.707 23.707C74.0907 23.3097 74.0797 22.6767 73.6824 22.293 73.2949 21.9187 72.6805 21.9187 72.293 22.293L67.893 26.693C62.4442 22.5556 55.8387 20.2243 49 20.025L49 14 59 14 59 12 37 12 37 14 47 14 47 20.025C28.7619 20.557 14.4083 35.7731 14.9403 54.0112 15.4723 72.2493 30.6885 86.6029 48.9265 86.0709 67.1646 85.5389 81.5182 70.3228 80.9862 52.0847 80.7147 42.7769 76.5278 34.0159 69.456 27.958ZM48 84C30.8792 84 17 70.1208 17 53 17 35.8792 30.8792 22 48 22 65.1208 22 79 35.8792 79 53 78.9802 70.1126 65.1126 83.9802 48 84Z" class="MsftOfcThm_Text2_Stroke_v2 MsftOfcThm_Text2_Fill_v2" stroke="#252845" stroke-width="1.00009" stroke-linecap="butt" stroke-linejoin="miter" stroke-miterlimit="4" stroke-opacity="1" fill="#252845" fill-opacity="1"/><path d="M48 30 48 32C59.577 31.9787 68.9793 41.3463 69.0006 52.9233 69.0102 58.1087 67.0974 63.1136 63.632 66.971 63.6278 66.9749 63.6212 66.9749 63.617 66.971L51.82 55.187C52.8025 54.0372 53.2016 52.4994 52.902 51.017 52.3221 48.3163 49.6627 46.5971 46.962 47.177 44.2613 47.7569 42.5421 50.4163 43.122 53.117 43.4799 54.6674 44.5578 55.9531 46.022 56.576 47.3767 57.1829 48.9352 57.1327 50.248 56.44L66.4 72.573 67.813 71.158 65.04 68.393C73.5634 59.0044 72.8621 44.4839 63.4735 35.9605 59.2383 32.1155 53.7203 29.9899 48 30ZM45 52C45 50.3431 46.3431 49 48 49 49.6569 49 51 50.3431 51 52 51 53.6569 49.6569 55 48 55 46.3431 55 45 53.6569 45 52Z" class="MsftOfcThm_Text2_Stroke_v2 MsftOfcThm_Text2_Fill_v2" stroke="#252845" stroke-width="1.00009" stroke-linecap="butt" stroke-linejoin="miter" stroke-miterlimit="4" stroke-opacity="1" fill="#252845" fill-opacity="1"/></svg>