<svg viewBox="0 0 96 96" xmlns="http://www.w3.org/2000/svg" xmlns:xlink="http://www.w3.org/1999/xlink" id="Icons_ThoughtBubble_M" overflow="hidden"><style>
.MsftOfcThm_Text2_Fill_v2 {
 fill:#252845; 
}
.MsftOfcThm_Text2_Stroke_v2 {
 stroke:#252845; 
}
</style>
<g id="Icons"><path d="M48.941 13C53.4601 12.9725 57.351 16.1837 58.181 20.626 58.181 20.633 58.19 20.637 58.196 20.632 59.8758 19.3587 61.9242 18.6666 64.032 18.66 69.2349 18.6765 73.4482 22.8911 73.463 28.094 73.4681 28.8213 73.3746 29.5459 73.185 30.248 73.1838 30.2534 73.1871 30.2588 73.1925 30.26 73.194 30.2603 73.1955 30.2603 73.197 30.26 73.9396 30.0651 74.7053 29.9715 75.473 29.982 80.6827 30.0575 84.8448 34.342 84.7693 39.5517 84.6947 44.7028 80.5016 48.8415 75.35 48.849 74.0539 48.8138 72.777 48.5275 71.59 48.006 71.5856 48.0038 71.5801 48.0055 71.5779 48.01 71.5771 48.0115 71.5768 48.0133 71.577 48.015L71.577 48.651C71.6179 53.6248 67.8384 57.7991 62.885 58.251 59.6486 58.5166 56.5097 57.0665 54.614 54.43 54.6109 54.4261 54.6052 54.4255 54.6013 54.4286 54.5994 54.4302 54.5982 54.4325 54.598 54.435 54.1065 59.632 49.4951 63.4466 44.2981 62.9551 39.4507 62.4967 35.7447 58.431 35.736 53.562 35.7352 53.2216 35.7654 52.8819 35.826 52.547 35.8282 52.5431 35.8269 52.5382 35.823 52.536 35.8191 52.5338 35.8142 52.5351 35.812 52.539 31.7223 55.7107 25.8358 54.9665 22.6641 50.8768 21.5751 49.4727 20.9078 47.7879 20.74 46.019L20.645 46.019C15.4348 46.0114 11.2171 41.7816 11.2247 36.5713 11.2322 31.4197 15.3709 27.2266 20.522 27.152 21.2897 27.1414 22.0554 27.235 22.798 27.43 22.8039 27.4312 22.8098 27.4274 22.811 27.4215 22.8113 27.42 22.8113 27.4185 22.811 27.417 22.6438 26.7785 22.5509 26.1228 22.534 25.463 22.4076 20.2731 26.5124 15.9633 31.7024 15.8369 34.9439 15.758 37.9972 17.3553 39.781 20.063 39.7833 20.0674 39.7887 20.0692 39.7931 20.0669 39.7948 20.066 39.7961 20.0647 39.797 20.063 40.9261 15.9311 44.6579 13.0486 48.941 13M48.941 11C44.9736 11.0269 41.2993 13.0936 39.216 16.47 37.1826 14.7676 34.616 13.8332 31.964 13.83 25.6963 13.8378 20.6004 18.8847 20.532 25.152 14.217 25.2199 9.15274 30.3943 9.22069 36.7094 9.28142 42.3546 13.4529 47.1106 19.042 47.907 20.568 53.9954 26.7407 57.6939 32.8291 56.1679 33.2118 56.072 33.5893 55.9562 33.96 55.821 35.2143 62.0196 41.2561 66.0277 47.4546 64.7734 51.0771 64.0404 54.1231 61.604 55.634 58.231 57.5376 59.5766 59.8139 60.294 62.145 60.283 67.7591 60.2762 72.5401 56.1995 73.434 50.657 74.065 50.7823 74.7067 50.8466 75.35 50.849 81.6648 50.8301 86.7686 45.6956 86.7497 39.3808 86.7309 33.1368 81.7065 28.0624 75.463 27.982 75.3946 21.7151 70.2993 16.6684 64.032 16.66 62.418 16.6627 60.822 17.0002 59.345 17.651 57.4911 13.5771 53.4168 10.9725 48.941 11Z" class="MsftOfcThm_Text2_Stroke_v2 MsftOfcThm_Text2_Fill_v2" stroke="#252845" stroke-width="0.999974" stroke-linecap="butt" stroke-linejoin="miter" stroke-miterlimit="4" stroke-opacity="1" fill="#252845" fill-opacity="1"/><path d="M29 65.018C31.2091 65.018 33 66.8089 33 69.018 33 71.2271 31.2091 73.018 29 73.018 26.7909 73.018 25 71.2271 25 69.018 25.0033 66.8102 26.7922 65.0213 29 65.018M29 63.018C25.6863 63.018 23 65.7043 23 69.018 23 72.3317 25.6863 75.018 29 75.018 32.3137 75.018 35 72.3317 35 69.018 35 65.7043 32.3137 63.018 29 63.018Z" class="MsftOfcThm_Text2_Stroke_v2 MsftOfcThm_Text2_Fill_v2" stroke="#252845" stroke-width="0.999974" stroke-linecap="butt" stroke-linejoin="miter" stroke-miterlimit="4" stroke-opacity="1" fill="#252845" fill-opacity="1"/><path d="M17 77.021C18.3807 77.021 19.5 78.1403 19.5 79.521 19.5 80.9017 18.3807 82.021 17 82.021 15.6193 82.021 14.5 80.9017 14.5 79.521 14.5 78.1403 15.6193 77.021 17 77.021M17 75.021C14.5147 75.021 12.5 77.0357 12.5 79.521 12.5 82.0063 14.5147 84.021 17 84.021 19.4853 84.021 21.5 82.0063 21.5 79.521 21.5 77.0357 19.4853 75.021 17 75.021Z" class="MsftOfcThm_Text2_Stroke_v2 MsftOfcThm_Text2_Fill_v2" stroke="#252845" stroke-width="0.999974" stroke-linecap="butt" stroke-linejoin="miter" stroke-miterlimit="4" stroke-opacity="1" fill="#252845" fill-opacity="1"/></g></svg>