<svg viewBox="0 0 96 96" xmlns="http://www.w3.org/2000/svg" xmlns:xlink="http://www.w3.org/1999/xlink" id="Icons_BrainInhead_M" overflow="hidden"><style>
.MsftOfcThm_Text2_Fill_v2 {
 fill:#252845; 
}
.MsftOfcThm_Text2_Stroke_v2 {
 stroke:#252845; 
}
</style>
<g id="Icons"><path d="M44.0715 9.2773C59.5614 9.26236 72.1305 21.8073 72.1454 37.2971 72.1458 37.6693 72.1387 38.0414 72.1243 38.4133L72.123 38.4497 72.123 39.52 72.3891 39.9829 79.2891 51.9863 79.3158 52.0327 79.345 52.0776C79.9946 52.8611 80.1865 53.9276 79.8507 54.8884 79.568 55.4696 79.0235 55.8799 78.3868 55.9914L72.123 55.9914 72.123 63.9931C72.1338 66.6303 71.1254 69.1698 69.3084 71.0812 67.4627 72.9471 64.947 73.9969 62.3224 73.9963L55.4224 73.9963 55.4224 86 27.8206 86 27.8206 61.7114 27.0443 61.1108C20.0426 55.7009 15.9658 47.3341 16.02 38.4861L16.02 38.45 16.0187 38.4136C15.4171 22.9354 27.477 9.90006 42.9552 9.29845 43.3271 9.28399 43.6993 9.27694 44.0715 9.2773M44.0715 7.2773C27.4771 7.26235 14.0125 20.7027 13.9975 37.2971 13.9972 37.6936 14.0047 38.09 14.02 38.4861 13.9811 47.9497 18.3415 56.8942 25.8206 62.6929L25.8206 88 57.4222 88 57.4222 75.9966 62.3222 75.9966C65.4759 75.9909 68.4979 74.7313 70.7222 72.4956 72.9161 70.2103 74.1354 67.1613 74.1222 63.9934L74.1222 57.9917 78.5222 57.9917C81.1222 57.6917 83.4222 54.6907 81.0222 50.9897L74.1222 38.9863 74.1222 38.4863C74.764 21.9043 61.8419 7.94159 45.2599 7.29977 44.8639 7.28445 44.4677 7.27696 44.0715 7.2773Z" class="MsftOfcThm_Text2_Stroke_v2 MsftOfcThm_Text2_Fill_v2" stroke="#252845" stroke-width="1.00001" stroke-linecap="butt" stroke-linejoin="miter" stroke-miterlimit="4" stroke-opacity="1" fill="#252845" fill-opacity="1"/><path d="M60.0107 29.5435C60.422 29.1749 60.4565 28.5427 60.0879 28.1314 59.7237 27.7251 59.101 27.6857 58.6885 28.043 58.1059 28.5246 57.4215 28.8677 56.687 29.0464 54.8102 29.3636 52.8811 29.0757 51.1787 28.2244 50.6636 27.9098 50.1803 27.5459 49.7355 27.1379 51.3984 26.4106 52.7772 25.1583 53.6606 23.5728 53.9131 23.0816 53.7196 22.4787 53.2284 22.2262 52.7372 21.9737 52.1343 22.1672 51.8818 22.6584 51.1457 23.9457 49.9752 24.9287 48.58 25.4312 46.5229 25.996 44.3589 26.0496 42.2763 25.5874 41.8863 25.5039 41.3978 25.385 40.9054 25.2607 42.0314 24.3906 42.7036 23.058 42.7343 21.6353 42.7243 21.2632 42.7206 20.9097 42.7206 20.9063 42.7154 20.3577 42.2692 19.9158 41.7206 19.9158L41.7113 19.9158C41.159 19.9209 40.7155 20.3727 40.7206 20.925 40.7206 20.925 40.724 21.2986 40.7353 21.6895 40.6858 22.4912 40.288 23.2311 39.6464 23.7144 38.7517 24.2659 37.7764 24.6745 36.7558 24.9255 36.5122 25.0005 36.2822 25.0874 36.0424 25.1648 35.8528 24.6606 35.5826 24.1905 35.2424 23.7729 34.5783 23.038 33.721 22.5046 32.7683 22.2336 32.2355 22.0881 31.6857 22.4021 31.5402 22.9349 31.3947 23.4677 31.7087 24.0175 32.2415 24.163 32.2468 24.1644 32.2522 24.1658 32.2575 24.1672 32.8125 24.3366 33.3148 24.6457 33.716 25.0649 33.9172 25.3197 34.0763 25.6051 34.1874 25.9102 33.4424 26.2919 32.7397 26.7511 32.091 27.2802 30.8813 28.3644 30.0635 29.8178 29.7647 31.4145 29.5999 31.2693 29.4484 31.1097 29.3122 30.9374 28.7879 30.04 28.4571 29.043 28.341 28.0102 28.2753 27.4618 27.7775 27.0706 27.2291 27.1363 26.6807 27.202 26.2895 27.6998 26.3552 28.2482 26.5118 29.6283 26.9748 30.9561 27.7102 32.1344 28.2748 32.811 28.9374 33.3994 29.676 33.88 29.7724 35.3423 30.2219 36.7595 30.986 38.01 30.6464 38.4121 30.2788 38.7897 29.886 39.14 29.3201 39.6032 28.4583 40.1877 28.4495 40.1935 27.9999 40.5143 27.8955 41.1388 28.2163 41.5884 28.5259 42.0222 29.1213 42.137 29.57 41.8494 29.6081 41.8235 30.5148 41.2087 31.152 40.6873 31.5413 40.3517 31.9068 39.9893 32.2458 39.603 32.7734 40.0626 33.33 40.4877 33.9123 40.8757 35.2423 41.8057 36.7487 42.8608 37.1423 44.3027 37.2723 45.0954 37.3502 45.8957 37.3757 46.6985L37.384 54.6985 39.384 54.6963 39.3757 46.698C39.3514 45.7177 39.2499 44.7408 39.072 43.7764 38.4885 41.6364 36.5876 40.3059 35.0598 39.2364 34.4297 38.8382 33.8461 38.3709 33.3198 37.8431 32.8409 37.2766 32.4561 36.637 32.18 35.9485 32.7755 35.7537 33.384 35.6008 34.0008 35.4907 34.6497 35.4466 35.3009 35.4488 35.9495 35.4973 36.5006 35.5341 36.9771 35.1172 37.0139 34.5662 37.0508 34.0151 36.6339 33.5385 36.0828 33.5017 35.3022 33.4445 34.5184 33.4466 33.7381 33.5081 33.047 33.6237 32.3651 33.7895 31.6981 34.0042 31.6471 33.5709 31.6243 33.1348 31.6296 32.6985 31.6517 31.1968 32.3018 29.7731 33.4221 28.7729 34.159 28.1944 34.9678 27.7139 35.8283 27.3435 36.3132 27.1535 36.8264 26.9963 37.344 26.8372 37.6008 26.7581 37.8598 26.6772 38.1185 26.593 38.3609 26.6599 39.4179 26.9492 40.4816 27.2163 41.2409 28.1674 41.713 29.3153 41.8425 30.5254 41.8417 31.8045 41.4793 33.0574 40.7971 34.1394 40.5212 34.5294 40.2085 34.892 39.8635 35.2224 39.4486 35.587 39.4078 36.2188 39.7724 36.6337 40.137 37.0485 40.7688 37.0893 41.1837 36.7248 41.1883 36.7207 41.1929 36.7166 41.1975 36.7124 41.6526 36.2846 42.0636 35.8122 42.4245 35.3024 42.5554 35.1136 42.6752 34.9174 42.7835 34.7148 43.7439 34.5781 44.6954 34.3858 45.6335 34.1388 46.3176 33.9106 46.9731 33.6043 47.5871 33.226 48.0505 32.9255 48.1826 32.3063 47.8821 31.8429 47.5863 31.3868 46.9804 31.2505 46.5178 31.536 46.0513 31.8214 45.5546 32.0542 45.0368 32.2301 44.5632 32.3612 44.0831 32.4677 43.5985 32.5494 43.7578 31.8866 43.8397 31.2076 43.8425 30.526 43.8118 29.5619 43.5685 28.6165 43.13 27.7574 43.8402 27.8513 44.5557 27.8989 45.272 27.9 45.9982 27.8987 46.7233 27.8424 47.441 27.7315 48.2738 28.5835 49.2027 29.336 50.209 29.9739 50.8184 30.296 51.4626 30.5476 52.129 30.7239 52.1347 30.7266 52.138 30.7322 52.1437 30.7349 53.5011 31.3573 54.76 32.1753 55.8801 33.1629 56.7184 34.1034 57.2252 35.2928 57.3229 36.5489 57.3229 37.0987 57.7668 37.5454 58.3166 37.5489L58.3229 37.5489C58.8726 37.5489 59.3193 37.1052 59.3229 36.5555 59.2328 34.8116 58.5497 33.1509 57.3869 31.8482 57.1356 31.5688 56.86 31.3123 56.5634 31.0816 56.7364 31.0584 56.9134 31.0409 57.0793 31.0077 58.1584 30.7582 59.1631 30.2565 60.0107 29.5435Z" class="MsftOfcThm_Text2_Stroke_v2 MsftOfcThm_Text2_Fill_v2" stroke="#252845" stroke-width="1.00001" stroke-linecap="butt" stroke-linejoin="miter" stroke-miterlimit="4" stroke-opacity="1" fill="#252845" fill-opacity="1"/><path d="M64.7324 27.2463C64.5899 23.1107 61.251 19.8016 57.1143 19.6963 56.1944 17.6701 54.4481 16.137 52.3198 15.4873 50.237 14.8509 47.9853 15.0846 46.0776 16.1353 44.556 14.9996 42.6767 14.4489 40.7827 14.5838 38.8568 14.7576 37.0528 15.6012 35.6846 16.9676 35.2732 16.9082 34.8581 16.8782 34.4424 16.8776 31.2618 16.8476 28.3796 18.7458 27.1509 21.6796 23.7595 22.6064 21.4002 25.6781 21.3794 29.1938 21.3807 29.8261 21.4627 30.4556 21.6235 31.0671 19.8822 33.6091 19.8111 36.9409 21.4424 39.5549 21.4482 39.7689 21.4722 39.982 21.5142 40.1919 22.498 45.0449 26.9287 47.2424 28.5708 47.6843 28.582 47.6872 28.6748 47.7077 28.686 47.7102 31.4248 48.2932 31.834 52.3388 31.834 54.6987L33.834 54.6987C33.834 47.7922 30.8696 46.1301 29.0728 45.7487 28.0918 45.4845 24.2661 43.6999 23.4728 39.7887 23.4428 39.6022 23.4305 39.4133 23.4362 39.2245L23.4299 38.9252 23.2599 38.6788C21.8456 36.6055 21.9449 33.8531 23.505 31.8871L23.845 31.462 23.6732 30.9459C23.4816 30.3816 23.3825 29.7901 23.3797 29.1942 23.4005 26.4214 25.3692 24.0459 28.09 23.5107L28.6511 23.3987 28.8386 22.8582C29.6498 20.4596 31.9102 18.8538 34.4421 18.8774 34.9097 18.8776 35.3761 18.9273 35.8332 19.0259L36.426 19.1577 36.816 18.6931C37.8627 17.48 39.3402 16.7215 40.936 16.5779 42.5412 16.4644 44.1228 17.0138 45.312 18.0979L45.8945 18.6318 46.5488 18.1887C48.0667 17.1557 49.9706 16.8652 51.7275 17.3987 53.4916 17.9414 54.8927 19.2904 55.5019 21.0327L55.7402 21.6927 56.8447 21.6927C60.0668 21.6632 62.7039 24.249 62.7378 27.4711L62.7378 28.4069 63.2558 28.6918C65.2145 29.7722 66.3606 31.8981 66.1865 34.1283 65.8754 37.2524 63.2001 39.6031 60.062 39.51L51.1582 39.51C46.8189 39.5271 43.2878 43.0071 43.2075 47.3457L43.2075 54.6985 45.2075 54.6985 45.2075 47.3608C45.2731 44.1182 47.9149 41.5207 51.1582 41.51L60.062 41.51C64.2548 41.6025 67.8034 38.4329 68.1831 34.2563 68.3944 31.4658 67.0727 28.7808 64.7324 27.2463Z" class="MsftOfcThm_Text2_Stroke_v2 MsftOfcThm_Text2_Fill_v2" stroke="#252845" stroke-width="1.00001" stroke-linecap="butt" stroke-linejoin="miter" stroke-miterlimit="4" stroke-opacity="1" fill="#252845" fill-opacity="1"/></g></svg>