<svg viewBox="0 0 96 96" xmlns="http://www.w3.org/2000/svg" xmlns:xlink="http://www.w3.org/1999/xlink" id="Icons_Atom_M" overflow="hidden"><style>
.MsftOfcResponsive_Stroke_daf49d {
 stroke:#DAF49D; 
}
</style>
<g id="Icons"><path d="M73.0632 48C80.8218 40.4478 84.4239 33.0879 81.7754 28.5 79.1269 23.9121 70.9511 23.3516 60.5316 26.2949 57.8706 15.7993 53.2977 9 48 9 42.7023 9 38.1293 15.7993 35.4684 26.2949 25.0484 23.3516 16.8738 23.9119 14.2246 28.5 11.5754 33.0881 15.1782 40.4478 22.9368 48 15.1782 55.5522 11.5761 62.9121 14.2246 67.5 15.7946 70.2192 19.3037 71.5244 24.0723 71.5244 27.9353 71.4303 31.768 70.8167 35.4672 69.7 38.1279 80.1982 42.7014 87 48 87 53.2986 87 57.8721 80.1982 60.5328 69.7 64.232 70.8167 68.0647 71.4304 71.9277 71.5244 76.6948 71.5244 80.2056 70.2188 81.7754 67.5 84.4239 62.9121 80.8218 55.5522 73.0632 48ZM72.0947 26.4355C76.0029 26.4355 78.8433 27.4214 80.043 29.5 82.2 33.2351 78.6474 39.79 71.59 46.6123 68.7754 44.0551 65.7908 41.6916 62.6568 39.5378 62.3586 35.748 61.8043 31.9827 60.9977 28.2678 64.5972 27.1598 68.33 26.5434 72.0947 26.4355ZM54.5 59.2583C52.3283 60.5122 50.1522 61.6611 48 62.7 45.8478 61.6614 43.6717 60.5125 41.5 59.2586 39.3283 58.0047 37.2454 56.6946 35.27 55.3502 35.0931 52.9666 35 50.5076 35 48 35 45.4924 35.0931 43.0334 35.27 40.65 37.2457 39.3056 39.3287 37.9955 41.5 36.7416 43.6713 35.4877 45.8484 34.3395 48.0012 33.3007 50.1531 34.3393 52.3287 35.4879 54.5 36.7416 56.6713 37.9953 58.7546 39.3056 60.73 40.6503 60.9067 43.0333 61 45.4923 61 48.0003 61 50.5083 60.907 52.9669 60.73 55.3503 58.7546 56.6943 56.6717 58.0044 54.5 59.2583ZM60.5012 57.9153C60.1939 61.0186 59.7116 64.102 59.0568 67.1509 56.0866 66.1929 53.173 65.0677 50.3298 63.7809 52.0405 62.9166 53.7657 61.9915 55.4998 60.9903 57.2315 59.9909 58.8987 58.9659 60.5012 57.9153ZM45.67 63.781C42.8269 65.0678 39.9133 66.1929 36.9433 67.151 36.2884 64.1021 35.8061 61.0187 35.4988 57.9154 37.1003 58.963 38.7673 59.9881 40.5 60.9908 42.2343 61.9919 43.96 62.917 45.67 63.781ZM33.1628 53.8687C30.6289 52.0509 28.1997 50.0916 25.8867 48 28.1997 45.9084 30.6289 43.9491 33.1628 42.1313 33.0563 44.042 33.0021 45.9983 33 48 33 49.9995 33.0543 51.9557 33.1628 53.8687ZM35.4988 38.0847C35.8061 34.9814 36.2884 31.898 36.9432 28.8491 39.9112 29.8064 42.8227 30.9305 45.664 32.2161 43.956 33.0791 42.2347 34.0102 40.5 35.0093 38.7684 36.009 37.1013 37.0341 35.4988 38.0847ZM50.3353 32.2158C53.1771 30.9318 56.0893 29.8097 59.058 28.855 59.7123 31.9021 60.1941 34.9836 60.5012 38.085 58.8997 37.0372 57.2327 36.012 55.5 35.0093 53.7682 34.0098 52.0466 33.0786 50.3353 32.2158ZM62.8372 42.1313C65.3711 43.9491 67.8003 45.9084 70.1133 48 67.8003 50.0916 65.3711 52.0509 62.8372 53.8687 62.9437 51.958 62.998 50.0018 63 48 63 46.0005 62.9457 44.0443 62.8372 42.1313ZM48 11C52.3131 11 56.2136 17.3535 58.593 26.877 54.9713 28.036 51.4322 29.439 48 31.0762 44.5678 29.4391 41.0287 28.0361 37.407 26.877 39.7864 17.3535 43.6869 11 48 11ZM15.957 29.5C18.1136 25.7651 25.5662 25.5637 35.0034 28.2646 34.1963 31.9806 33.6417 35.7469 33.3434 39.5378 30.2093 41.6916 27.2246 44.0551 24.41 46.6123 17.3526 39.79 13.8005 33.2351 15.957 29.5ZM15.957 66.5C13.8005 62.7649 17.3526 56.21 24.4104 49.3877 27.225 51.9449 30.2096 54.3084 33.3436 56.4622 33.6419 60.2531 34.1965 64.0194 35.0036 67.7354 25.5659 70.4365 18.1133 70.2354 15.957 66.5ZM48 85C43.6864 85 39.7856 78.645 37.4063 69.12 41.0283 67.9607 44.5676 66.5575 48 64.92 51.4324 66.5575 54.9718 67.9607 58.5938 69.12 56.2144 78.645 52.3135 85 48 85ZM80.043 66.5C77.8864 70.2349 70.4338 70.4363 60.9966 67.7354 61.8037 64.0194 62.3583 60.2531 62.6566 56.4622 65.7907 54.3084 68.7754 51.9449 71.59 49.3877 78.6474 56.21 82.2 62.7649 80.043 66.5Z" class="MsftOfcResponsive_Stroke_daf49d" stroke="#DAF49D" stroke-width="1.00003" stroke-linecap="butt" stroke-linejoin="miter" stroke-miterlimit="4" stroke-opacity="1" fill="#DAF49D" fill-opacity="1"/><path d="M48 42C44.6863 42 42 44.6863 42 48 42 51.3137 44.6863 54 48 54 51.3137 54 54 51.3137 54 48 53.9964 44.6878 51.3122 42.0036 48 42ZM48 52C45.7909 52 44 50.2091 44 48 44 45.7909 45.7909 44 48 44 50.2091 44 52 45.7909 52 48 51.9975 50.2081 50.2081 51.9975 48 52Z" class="MsftOfcResponsive_Stroke_daf49d" stroke="#DAF49D" stroke-width="1.00003" stroke-linecap="butt" stroke-linejoin="miter" stroke-miterlimit="4" stroke-opacity="1" fill="#DAF49D" fill-opacity="1"/></g></svg>