<svg viewBox="0 0 96 96" xmlns="http://www.w3.org/2000/svg" xmlns:xlink="http://www.w3.org/1999/xlink" id="Icons_Teacher_M" overflow="hidden"><style>
.MsftOfcResponsive_Fill_daf49d {
 fill:#DAF49D; 
}
.MsftOfcResponsive_Stroke_daf49d {
 stroke:#DAF49D; 
}
</style>
<g id="Icons"><path d="M86 20 26 20C23.2399 20.0033 21.0033 22.2399 21 25L21 39.313C21.6559 39.1532 22.3256 39.0567 23 39.025L23 25C23 23.3431 24.3431 22 26 22L86 22C87.6569 22 89 23.3431 89 25L89 63C89 64.6569 87.6569 66 86 66L47.337 66 45.471 68 86 68C88.7601 67.9967 90.9967 65.7601 91 63L91 25C90.9967 22.2399 88.7601 20.0033 86 20Z" class="MsftOfcResponsive_Stroke_daf49d MsftOfcResponsive_Fill_daf49d" stroke="#DAF49D" stroke-width="1.00006" stroke-linecap="butt" stroke-linejoin="miter" stroke-miterlimit="4" stroke-opacity="1" fill="#DAF49D" fill-opacity="1"/><path d="M57 50.669C56.909 48.0323 54.6978 45.9686 52.0611 46.0596 50.7942 46.1033 49.5965 46.6488 48.732 47.576L34.711 62.676C31.2453 60.9725 27.4434 60.0632 23.582 60.014 23.555 60.014 23.531 59.998 23.503 59.998 23.428 59.998 23.355 60.005 23.28 60.006 23.187 60.006 23.096 59.998 23.003 59.998 22.9693 60.0031 22.9359 60.0101 22.903 60.019 18.2044 60.0705 13.6114 61.4202 9.632 63.919 8.16001 64.8724 7.09174 66.3356 6.632 68.028L4.28 76.74C4.13675 77.2729 4.45226 77.8211 4.985 77.965 5.07037 77.9883 5.15849 78.0001 5.247 78 5.69893 77.9997 6.0945 77.6964 6.212 77.26L8.56 68.552C8.89152 67.3354 9.66075 66.2841 10.72 65.6 14.4812 63.245 18.8314 62.0009 23.269 62.011 27.1649 62.0142 31.0007 62.9717 34.441 64.8 34.8432 65.0186 35.3424 64.9362 35.653 64.6L50.192 48.938C51.2389 47.8169 52.9964 47.7566 54.1175 48.8035 55.2386 49.8504 55.2989 51.6079 54.252 52.729L31.318 77.3C30.9413 77.704 30.9635 78.3368 31.3675 78.7135 31.7715 79.0902 32.4043 79.068 32.781 78.664L55.715 54.093C56.5834 53.1691 57.0462 51.9361 57 50.669Z" class="MsftOfcResponsive_Stroke_daf49d MsftOfcResponsive_Fill_daf49d" stroke="#DAF49D" stroke-width="1.00006" stroke-linecap="butt" stroke-linejoin="miter" stroke-miterlimit="4" stroke-opacity="1" fill="#DAF49D" fill-opacity="1"/><path d="M23.5 58C28.1944 58 32 54.1944 32 49.5 32 44.8056 28.1944 41 23.5 41 18.8056 41 15 44.8056 15 49.5 15.0055 54.1921 18.8079 57.9945 23.5 58ZM23.5 43C27.0899 43 30 45.9101 30 49.5 30 53.0899 27.0899 56 23.5 56 19.9101 56 17 53.0899 17 49.5 17.0044 45.912 19.912 43.0044 23.5 43Z" class="MsftOfcResponsive_Stroke_daf49d MsftOfcResponsive_Fill_daf49d" stroke="#DAF49D" stroke-width="1.00006" stroke-linecap="butt" stroke-linejoin="miter" stroke-miterlimit="4" stroke-opacity="1" fill="#DAF49D" fill-opacity="1"/></g></svg>