<svg viewBox="0 0 96 96" xmlns="http://www.w3.org/2000/svg" xmlns:xlink="http://www.w3.org/1999/xlink" id="Icons_OnlineMeeting_M" overflow="hidden"><style>
.MsftOfcThm_Text2_Fill_v2 {
 fill:#252845; 
}
.MsftOfcThm_Text2_Stroke_v2 {
 stroke:#252845; 
}
</style>
<defs></defs><g id="Icons"><path d="M84.0075 15.0039 12.0041 15.0039C9.79719 15.0106 8.00998 16.7983 8.00382 19.0051L8.00382 67.0185C8.01008 69.2253 9.79727 71.0129 12.0041 71.0195L41.0038 71.0195 41.0038 81.0225 30.0048 81.0225 30.0048 83.0225 66.0068 83.0225 66.0068 81.0225 55.0038 81.0225 55.0038 71.0195 84.0075 71.0195C86.2143 71.0129 88.0015 69.2253 88.0077 67.0185L88.0077 19.0051C88.0016 16.7983 86.2144 15.0106 84.0075 15.0039ZM53.0038 81.0225 43.0038 81.0225 43.0038 71.0195 53.0038 71.0195ZM86.0077 67.0185C86.0067 68.1229 85.1119 69.0181 84.0075 69.0195L12.0041 69.0195C10.8997 69.0181 10.0049 68.1229 10.0038 67.0185L10.0038 19.0051C10.0048 17.9007 10.8996 17.0054 12.0041 17.0039L84.0075 17.0039C85.1119 17.0054 86.0068 17.9007 86.0077 19.0051Z" class="MsftOfcThm_Text2_Stroke_v2 MsftOfcThm_Text2_Fill_v2" stroke="#252845" stroke-width="1.00006" stroke-linecap="butt" stroke-linejoin="miter" stroke-miterlimit="4" stroke-opacity="1" fill="#252845" fill-opacity="1"/><path d="M15.0042 20.0056 13.0042 20.0056 13.0042 66.0178 83.0075 66.0178 83.0075 20.0056 15.0042 20.0056ZM41.0048 22.0056 41.0048 41.999 36.2587 41.999 36.2587 38.8115C36.2741 37.9257 35.8564 37.088 35.1396 36.5674 33.9975 35.6788 32.677 35.0472 31.2685 34.7158 30.218 34.4027 29.1308 34.229 28.0351 34.1992 26.9438 34.1989 25.8594 34.3716 24.8222 34.7109 23.4089 35.0961 22.0777 35.7355 20.8935 36.5976 20.2135 37.1315 19.8153 37.9471 19.8124 38.8115L19.8124 41.999 15.0042 41.999 15.0042 22.0056ZM34.2587 41.999 21.8124 41.999 21.8124 38.8115C21.8054 38.5695 21.9133 38.3384 22.1034 38.1885 23.0934 37.4755 24.204 36.9472 25.3817 36.6289 26.2383 36.3478 27.1336 36.2028 28.0351 36.1992 28.9596 36.2315 29.876 36.3831 30.7616 36.6504 31.9019 36.9108 32.9715 37.4174 33.8954 38.1348L33.9813 38.1983C34.1665 38.3466 34.2695 38.5745 34.2587 38.8115ZM15.0042 43.999 41.0048 43.999 41.0048 64.0178 36.2587 64.0178 36.2587 60.8115C36.2741 59.9257 35.8564 59.088 35.1396 58.5674 33.9975 57.6788 32.677 57.0472 31.2685 56.7158 30.218 56.4027 29.1308 56.229 28.0351 56.1992 26.9438 56.1989 25.8594 56.3716 24.8222 56.7109 23.4089 57.0961 22.0777 57.7355 20.8935 58.5976 20.2135 59.1315 19.8153 59.9471 19.8124 60.8115L19.8124 64.0178 15.0042 64.0178ZM34.2587 64.0178 21.8124 64.0178 21.8124 60.8115C21.8054 60.5695 21.9133 60.3384 22.1034 60.1885 23.0934 59.4755 24.204 58.9472 25.3817 58.6289 26.2383 58.3478 27.1336 58.2028 28.0351 58.1992 28.9596 58.2315 29.876 58.3831 30.7616 58.6504 31.9019 58.9108 32.9715 59.4174 33.8954 60.1348L33.9813 60.1983C34.1665 60.3466 34.2695 60.5745 34.2587 60.8115ZM81.0075 64.0178 43.0048 64.0178 43.0048 22.0056 81.0075 22.0056Z" class="MsftOfcThm_Text2_Stroke_v2 MsftOfcThm_Text2_Fill_v2" stroke="#252845" stroke-width="1.00006" stroke-linecap="butt" stroke-linejoin="miter" stroke-miterlimit="4" stroke-opacity="1" fill="#252845" fill-opacity="1"/><path d="M74.4247 55.999 74.4247 49.957C74.449 48.738 73.873 47.5847 72.8837 46.872 71.1371 45.5102 69.1156 44.5439 66.9589 44.04 65.3478 43.5591 63.6806 43.2912 61.9999 43.2431 60.3218 43.2437 58.6546 43.511 57.0604 44.0351 54.9083 44.6206 52.8806 45.5925 51.0761 46.9033 50.1348 47.638 49.5814 48.763 49.5741 49.957L49.5741 55.999ZM51.5741 49.957C51.5723 49.3855 51.8352 48.8453 52.286 48.4941 53.8963 47.3331 55.703 46.4723 57.619 45.9531 59.0332 45.4887 60.5115 45.2491 61.9999 45.2431 63.5099 45.2941 65.007 45.54 66.454 45.9746 68.3423 46.4078 70.1129 47.2491 71.6415 48.4394L71.7274 48.5039C72.1873 48.8419 72.4488 49.3867 72.4247 49.957L72.4247 53.999 51.5741 53.999Z" class="MsftOfcThm_Text2_Stroke_v2 MsftOfcThm_Text2_Fill_v2" stroke="#252845" stroke-width="1.00006" stroke-linecap="butt" stroke-linejoin="miter" stroke-miterlimit="4" stroke-opacity="1" fill="#252845" fill-opacity="1"/><path d="M61.9995 42.1023C65.3418 42.1031 68.052 39.3943 68.0528 36.052 68.0536 32.7097 65.3448 29.9996 62.0025 29.9988 58.6602 29.998 55.9501 32.7068 55.9493 36.0491 55.9493 36.0496 55.9493 36.05 55.9493 36.0505 55.9489 39.3924 58.6577 42.1019 61.9995 42.1023ZM61.9995 31.9988C64.2373 31.998 66.052 33.8113 66.0528 36.0491 66.0536 38.2868 64.2402 40.1015 62.0025 40.1023 59.7648 40.1031 57.9501 38.2897 57.9493 36.052 57.9493 36.0515 57.9493 36.051 57.9493 36.0505 57.9514 33.8143 59.7633 32.0017 61.9995 31.9988Z" class="MsftOfcThm_Text2_Stroke_v2 MsftOfcThm_Text2_Fill_v2" stroke="#252845" stroke-width="1.00006" stroke-linecap="butt" stroke-linejoin="miter" stroke-miterlimit="4" stroke-opacity="1" fill="#252845" fill-opacity="1"/><path d="M28.0353 55.229C30.308 55.2295 32.1508 53.3875 32.1513 51.1147 32.1517 48.842 30.3097 46.9992 28.037 46.9988 25.7643 46.9983 23.9215 48.8403 23.9211 51.113 23.9211 51.1134 23.9211 51.1137 23.9211 51.114 23.9208 53.3864 25.7627 55.2287 28.035 55.229 28.0351 55.229 28.0352 55.229 28.0353 55.229ZM28.0353 48.9988C29.2035 48.9983 30.1508 49.9449 30.1513 51.113 30.1517 52.2812 29.2052 53.2285 28.037 53.229 26.8689 53.2295 25.9215 52.2829 25.9211 51.1147 25.9211 51.1145 25.9211 51.1142 25.9211 51.114 25.9221 49.9466 26.8679 49.0004 28.0353 48.9988Z" class="MsftOfcThm_Text2_Stroke_v2 MsftOfcThm_Text2_Fill_v2" stroke="#252845" stroke-width="1.00006" stroke-linecap="butt" stroke-linejoin="miter" stroke-miterlimit="4" stroke-opacity="1" fill="#252845" fill-opacity="1"/><path d="M28.0353 33.2293C30.3081 33.2298 32.151 31.3878 32.1515 29.115 32.1521 26.8422 30.3101 24.9993 28.0373 24.9988 25.7645 24.9982 23.9216 26.8402 23.9211 29.113 23.9211 29.1134 23.9211 29.1137 23.9211 29.114 23.9208 31.3865 25.7627 33.229 28.0352 33.2293 28.0353 33.2293 28.0353 33.2293 28.0353 33.2293ZM28.0353 26.9988C29.2035 26.9982 30.151 27.9448 30.1515 29.113 30.1521 30.2813 29.2055 31.2287 28.0373 31.2293 26.8691 31.2298 25.9216 30.2832 25.9211 29.115 25.9211 29.1147 25.9211 29.1143 25.9211 29.114 25.9221 27.9466 26.8679 27.0004 28.0353 26.9988Z" class="MsftOfcThm_Text2_Stroke_v2 MsftOfcThm_Text2_Fill_v2" stroke="#252845" stroke-width="1.00006" stroke-linecap="butt" stroke-linejoin="miter" stroke-miterlimit="4" stroke-opacity="1" fill="#252845" fill-opacity="1"/></g></svg>