<svg viewBox="0 0 96 96" xmlns="http://www.w3.org/2000/svg" xmlns:xlink="http://www.w3.org/1999/xlink" id="Icons_Wireless_M" overflow="hidden"><style>
.MsftOfcResponsive_Fill_daf49d {
 fill:#DAF49D; 
}
.MsftOfcResponsive_Stroke_daf49d {
 stroke:#DAF49D; 
}
</style>
<g id="Icons"><path d="M63 72C63 75.866 66.134 79 70 79 73.866 79 77 75.866 77 72 77 68.134 73.866 65 70 65 66.1358 65.0044 63.0044 68.1358 63 72ZM75 72C75 74.7614 72.7614 77 70 77 67.2386 77 65 74.7614 65 72 65 69.2386 67.2386 67 70 67 72.7601 67.0033 74.9967 69.2399 75 72Z" class="MsftOfcResponsive_Stroke_daf49d MsftOfcResponsive_Fill_daf49d" stroke="#DAF49D" stroke-width="0.999974" stroke-linecap="butt" stroke-linejoin="miter" stroke-miterlimit="4" stroke-opacity="1" fill="#DAF49D" fill-opacity="1"/><path d="M78 52 78 50C61.4392 50.0187 48.0187 63.4392 48 80L50 80C50.0176 64.5433 62.5433 52.0176 78 52Z" class="MsftOfcResponsive_Stroke_daf49d MsftOfcResponsive_Fill_daf49d" stroke="#DAF49D" stroke-width="0.999974" stroke-linecap="butt" stroke-linejoin="miter" stroke-miterlimit="4" stroke-opacity="1" fill="#DAF49D" fill-opacity="1"/><path d="M78 37 78 35C53.1588 35.0281 33.0281 55.1588 33 80L35 80C35.027 56.263 54.263 37.027 78 37Z" class="MsftOfcResponsive_Stroke_daf49d MsftOfcResponsive_Fill_daf49d" stroke="#DAF49D" stroke-width="0.999974" stroke-linecap="butt" stroke-linejoin="miter" stroke-miterlimit="4" stroke-opacity="1" fill="#DAF49D" fill-opacity="1"/><path d="M78 22 78 20C44.8784 20.0375 18.0375 46.8784 18 80L20 80C20.0364 47.9826 45.9826 22.0364 78 22Z" class="MsftOfcResponsive_Stroke_daf49d MsftOfcResponsive_Fill_daf49d" stroke="#DAF49D" stroke-width="0.999974" stroke-linecap="butt" stroke-linejoin="miter" stroke-miterlimit="4" stroke-opacity="1" fill="#DAF49D" fill-opacity="1"/></g></svg>