<svg viewBox="0 0 96 96" xmlns="http://www.w3.org/2000/svg" xmlns:xlink="http://www.w3.org/1999/xlink" id="Icons_Mitochondria_M" overflow="hidden"><style>
.MsftOfcResponsive_Fill_daf49d {
 fill:#DAF49D; 
}
.MsftOfcResponsive_Stroke_daf49d {
 stroke:#DAF49D; 
}
</style>
<g id="Icons"><path d="M33.2979 78.9907C32.4385 79.0423 31.586 78.8104 30.8711 78.3307 29.2227 77.0318 29.3877 74.899 29.5479 72.837 29.5889 72.3092 29.6318 71.7706 29.6426 71.2364 29.6635 70.5343 29.2113 69.9052 28.5391 69.7013 27.7431 69.4888 26.9241 69.9555 26.7012 70.7486 26.6677 70.8663 26.6494 70.9877 26.6465 71.11 26.6255 73.0484 25.037 74.6027 23.0986 74.5817 22.0767 74.5706 21.1104 74.1147 20.4521 73.3331 19.4557 72.1888 18.6436 70.8963 18.0449 69.5021 17.3915 68.2498 17.0482 66.8589 17.0439 65.4464 17.0429 64.577 17.2073 63.7153 17.5283 62.9073L17.5742 62.8073C18.5148 61.035 20.7139 60.3607 22.4863 61.301 22.6624 61.3946 22.8306 61.5023 22.9893 61.6232 24.2871 62.7732 26.0947 63.2132 26.6211 62.9182L26.7021 62.8767C27.1413 62.6776 27.3366 62.1607 27.1387 61.7209 27.0932 61.6204 27.0292 61.5293 26.9502 61.4523L26.8602 61.3518C26.7732 61.2395 26.6648 61.1071 26.5428 60.9572 25.5228 59.7087 23.6228 57.384 24.0066 55.2365 24.2 54.2483 24.8306 53.4007 25.7215 52.9314 27.1565 52.0568 28.924 51.9242 30.4734 52.5749 32.3638 53.4793 33.7012 55.2409 34.0643 57.3049 34.2489 58.4771 34.9143 59.5192 35.9 60.18 36.4458 60.4629 37.0898 60.4853 37.6539 60.241 38.1533 60.1122 38.5789 59.7858 38.8326 59.3367 39.0696 58.9106 39.1259 58.4072 38.9889 57.9393L38.9498 57.8025C38.4584 56.5817 37.6715 55.502 36.6598 54.6604 35.6944 53.7665 34.8512 52.7491 34.1519 51.6346 31.9947 47.9397 34.6832 45.8146 35.8319 44.907 38.1908 43.0027 41.5485 42.9672 43.9472 44.8211 46.1908 46.5834 48.5859 48.1438 51.1044 49.4842 51.1757 49.5227 51.3444 49.6067 51.5175 49.6932 51.7938 49.8318 52.077 49.9803 52.1054 49.9993 52.3258 50.1383 52.5924 50.1841 52.8466 50.1268 53.1058 50.0706 53.3318 49.9132 53.4745 49.6897 53.495 49.6583 53.5133 49.6255 53.5292 49.5916 53.7377 49.113 53.566 48.5539 53.1249 48.2747 49.9074 45.9805 46.9933 43.2882 44.452 40.262 43.3962 39.0448 43.3146 37.2619 44.2548 35.9534 45.59 34.0149 48.1311 33.3259 50.2626 34.3245 54.3397 36.241 55.9013 37.428 56.4804 37.9895L57.3437 38.5184C57.66 38.7071 58.0691 38.6063 58.2616 38.2923 58.303 38.2257 58.3318 38.152 58.3466 38.075 58.595 36.8504 58.1875 35.5848 57.2714 34.735 55.3193 32.9403 53.2221 31.3101 51.0014 29.8609 49.6647 29.0106 49.2529 27.2477 50.0746 25.8932 51.477 23.6855 54.4035 23.0326 56.6112 24.435 56.6138 24.4366 56.6165 24.4383 56.6191 24.44 56.7458 24.5216 56.8688 24.6092 56.9883 24.7027 59.292 26.5099 60.9736 28.089 60.9873 28.1021 61.5958 28.6644 62.5449 28.6269 63.1072 28.0184 63.6694 27.4098 63.6319 26.4608 63.0234 25.8985 62.9658 25.8443 61.6055 24.568 59.6494 22.984 58.7398 22.2872 58.3293 21.118 58.6035 20.0055 58.9258 18.9624 59.8504 18.2204 60.9385 18.1314 63.6295 17.6882 66.3915 18.0568 68.8721 19.19 74.0896 21.597 77.5809 26.6558 77.9805 32.3878 78.1024 34.6742 76.3477 36.6265 74.0613 36.7485 73.1064 36.7994 72.1632 36.5186 71.3916 35.9537 70.6758 35.4293 69.9521 34.9117 69.2363 34.4171 68.4301 33.8286 67.32 33.8935 66.5879 34.5719 65.8038 35.3515 65.8001 36.6192 66.5797 37.4033 66.6661 37.4902 66.7604 37.5691 66.8613 37.6388 68.0156 38.4342 69.3037 39.3712 70.6924 40.4244 73.0364 42.2022 73.6782 45.4533 72.1855 47.9884 71.7587 48.7463 71.0427 49.2987 70.2012 49.5191 69.3821 49.7335 68.5112 49.6119 67.7822 49.1813 67.6544 49.1067 67.532 49.0232 67.416 48.9313 66.2197 47.9845 64.9541 47.0485 63.6572 46.1495 62.4363 45.3715 60.8246 45.6451 59.9287 46.7823 59.2624 47.8168 59.4119 49.1766 60.2871 50.0416 61.6497 51.4574 62.9045 52.9732 64.041 54.5763 65.0061 55.9166 65.1018 57.6963 64.2861 59.1324L64.2305 59.2198C63.5096 60.2221 62.4851 60.9655 61.3086 61.34 58.3174 62.5861 56.4775 61.6008 54.3506 60.4621L48.1943 57.1821C47.8632 57.0048 47.4611 57.0259 47.1504 57.2368 46.6239 57.9805 46.4323 58.9105 46.6221 59.8017 47.5479 61.456 49.1006 62.0864 50.6016 62.6958 52.1504 63.3247 53.9063 64.0371 54.1553 66.0268 54.4717 68.5668 50.6191 71.292 48.9482 72.3452 46.8623 73.5151 44.2233 72.7837 43.0371 70.707 41.4912 68.1157 41.2529 68.1079 40.3662 68.0791L40.3584 68.0791C39.5359 68.0901 38.8624 68.7362 38.8174 69.5576 38.9813 70.1591 39.227 70.7352 39.5474 71.27 40.3237 72.7734 41.2036 74.477 40.4874 75.9394 39.8136 77.3135 37.5352 78.2671 35.6274 78.7016 34.8636 78.8819 34.0826 78.9788 33.2979 78.9907ZM28.1445 67.6484C28.4661 67.6488 28.7861 67.6932 29.0957 67.7803 30.6392 68.239 31.6833 69.6759 31.6426 71.2856 31.6299 71.8506 31.5859 72.4268 31.542 72.9917 31.3906 74.939 31.3535 76.1646 32.1094 76.7593 32.3828 76.9756 33.4294 77.1523 35.1836 76.752 37.1514 76.3042 38.4854 75.4814 38.6914 75.0601 38.9658 74.501 38.2471 73.1094 37.7705 72.1885 37.2328 71.3672 36.9064 70.4257 36.8205 69.4478 36.9277 67.5581 38.4911 66.0805 40.3838 66.08L40.4038 66.08C42.3716 66.1439 43.0981 66.9081 44.7622 69.6977 45.3926 70.8219 46.8085 71.2321 47.9422 70.619 50.3953 69.069 52.2791 67.1459 52.1707 66.2753 52.0769 65.5243 51.4256 65.1894 49.8494 64.5492 48.1994 63.8792 46.1453 63.0458 44.8748 60.7758 44.2176 59.602 44.5398 56.5927 46.0281 55.581 46.9525 54.954 48.1483 54.8908 49.1336 55.4169L55.2947 58.6991C57.3211 59.7841 58.4363 60.3837 60.5769 59.4784L60.6727 59.4437C61.4331 59.2093 62.0986 58.7379 62.5721 58.0985 62.9759 57.3473 62.9153 56.4314 62.416 55.74 61.3391 54.2211 60.1505 52.7846 58.86 51.4424 57.3017 49.875 57.0751 47.4221 58.32 45.5957 59.855 43.6071 62.6573 43.1254 64.7683 44.4873 66.1276 45.4282 67.4238 46.3867 68.6569 47.3628 69.1727 47.7726 69.923 47.6866 70.3328 47.1708 70.3673 47.1273 70.3988 47.0815 70.4269 47.0337 71.4406 45.3664 71.0337 43.2031 69.4835 42.0181 68.1192 40.9829 66.8556 40.064 65.7276 39.2861 65.5109 39.1378 65.3099 38.9678 65.1276 38.7788 63.5884 37.1949 63.6242 34.6632 65.2076 33.1235 66.6323 31.788 68.8022 31.6456 70.3892 32.7835 71.1041 33.2772 71.8434 33.8055 72.5728 34.3406 73.5297 35.04 74.8724 34.8312 75.5718 33.8743 75.8612 33.4783 76.0063 32.9951 75.9828 32.5052 75.6292 27.511 72.5849 23.1052 68.0385 21.0081 65.9124 20.0389 63.5455 19.726 61.2406 20.1092 60.9467 20.1507 60.6088 20.2557 60.5297 20.5403 60.4752 20.8846 60.6214 21.2299 60.9066 21.4303 62.9203 23.0603 64.3334 24.3863 64.392 24.442 65.8059 25.76 65.8837 27.9748 64.5657 29.3887 63.2476 30.8026 61.0329 30.8804 59.619 29.5624 59.613 29.5568 59.607 29.5511 59.601 29.5455 59.5795 29.5255 57.9281 27.984 55.7523 26.2765 55.683 26.2223 55.6123 26.172 55.5394 26.1246 54.272 25.3135 52.5871 25.6819 51.7738 26.9479 51.53 27.3768 51.6684 27.9216 52.0873 28.1822 54.4032 29.6931 56.59 31.3931 58.6254 33.2648 60.0541 34.5884 60.6911 36.5601 60.307 38.4694 60.2461 38.7763 60.1309 39.07 59.967 39.3365 59.1964 40.5926 57.5551 40.9891 56.2961 40.2233L55.1133 39.45C54.8333 39.1692 53.5933 38.1 49.4102 36.1336 48.184 35.5538 46.7185 35.9374 45.9336 37.0436 45.4889 37.6113 45.5052 38.4135 45.9727 38.9626 48.3958 41.8517 51.1739 44.4233 54.2412 46.6164 55.4998 47.4438 55.9675 49.0651 55.3428 50.4357 55.2885 50.5511 55.2269 50.6628 55.1582 50.7702 54.2613 52.162 52.4077 52.5663 51.0127 51.6745 51.001 51.6706 50.8096 51.5754 50.6227 51.4821 50.3669 51.3542 50.1208 51.2258 50.0944 51.2087 47.4977 49.8262 45.0287 48.2162 42.7165 46.3976 41.0672 45.1208 38.7591 45.1358 37.1265 46.4338 35.395 47.801 34.7895 48.76 35.8784 50.6267 36.4938 51.5913 37.2317 52.472 38.0737 53.2467 39.3779 54.3462 40.3591 55.7792 40.9126 57.3927L40.9497 57.5294C41.4433 59.5303 40.2685 61.5638 38.2886 62.1358 37.2068 62.5654 35.9907 62.4967 34.9643 61.9479 33.4637 61.021 32.4283 59.4994 32.1167 57.7633 31.889 56.3223 30.9858 55.0772 29.6867 54.4133 28.7222 54.0095 27.6216 54.0994 26.7355 54.6545 26.3481 54.827 26.0657 55.1734 25.9748 55.5876 25.7531 56.8298 27.3322 58.7629 28.091 59.6916 28.2062 59.8337 28.311 59.9616 28.3986 60.0725 29.507 61.2091 29.4842 63.029 28.3476 64.1375 28.1184 64.361 27.8534 64.5447 27.5637 64.6809 25.8791 65.5909 23.0959 64.3909 21.717 63.1647 21.7043 63.1579 21.6281 63.1096 21.548 63.0671 20.7691 62.6536 19.8027 62.9336 19.3654 63.6994 19.1519 64.2554 19.0427 64.846 19.0431 65.4416 19.0497 66.5564 19.3255 67.6531 19.8469 68.6384 20.3737 69.8731 21.09 71.0181 21.9699 72.0319 22.4995 72.6761 23.4511 72.7689 24.0953 72.2393 24.4328 71.9618 24.6336 71.5517 24.6457 71.1149 24.6493 70.8082 24.6926 70.5033 24.7746 70.2077 25.1992 68.6973 26.5747 67.6521 28.1437 67.6477Z" class="MsftOfcResponsive_Stroke_daf49d MsftOfcResponsive_Fill_daf49d" stroke="#DAF49D" stroke-width="1.00012" stroke-linecap="butt" stroke-linejoin="miter" stroke-miterlimit="4" stroke-opacity="1" fill="#DAF49D" fill-opacity="1"/><path d="M62.5771 14C73.3094 14.0172 81.9957 22.7314 81.9785 33.4637 81.9744 36.0462 81.4555 38.602 80.4523 40.9816 72.1847 60.5214 56.5728 75.8369 38.69 81.95 28.5473 85.4176 17.514 80.0063 14.0464 69.8636 10.5788 59.7209 15.9901 48.6876 26.1328 45.22 32.1728 43.1519 40.2573 36.3625 44.7165 25.8235 47.7506 18.6492 54.7876 13.9908 62.5771 14M62.5771 12C53.987 11.9985 46.2289 17.1348 42.8757 25.0434L42.8611 25.0781C38.6543 35.02 31.104 41.4048 25.4854 43.3286 14.2892 47.1288 8.29353 59.2859 12.0938 70.4821 15.894 81.6783 28.051 87.674 39.2472 83.8737 39.2773 83.8635 39.3074 83.8532 39.3374 83.8429 57.7505 77.5479 73.8087 61.8157 82.2942 41.761 86.8938 30.8543 81.7809 18.2839 70.8741 13.6843 68.2479 12.5768 65.4272 12.0042 62.5771 12Z" class="MsftOfcResponsive_Stroke_daf49d MsftOfcResponsive_Fill_daf49d" stroke="#DAF49D" stroke-width="1.00012" stroke-linecap="butt" stroke-linejoin="miter" stroke-miterlimit="4" stroke-opacity="1" fill="#DAF49D" fill-opacity="1"/></g></svg>