<svg viewBox="0 0 96 96" xmlns="http://www.w3.org/2000/svg" xmlns:xlink="http://www.w3.org/1999/xlink" id="Icons_dna_M" overflow="hidden"><style>
.MsftOfcResponsive_Fill_daf49d {
 fill:#DAF49D; 
}
.MsftOfcResponsive_Stroke_daf49d {
 stroke:#DAF49D; 
}
</style>
<g id="Icons"><path d="M68 48C68 36.129 59.19 30.8 50.142 26 59.19 21.2 68 15.871 68 4L66 4C66.0275 6.40431 65.5548 8.78809 64.612 11L31.388 11C30.4452 8.78809 29.9725 6.40431 30 4L28 4C28 15.871 36.81 21.2 45.858 26 36.81 30.8 28 36.129 28 48 28 59.871 36.81 65.2 45.858 70 36.81 74.8 28 80.129 28 92L30 92C29.9725 89.5957 30.4452 87.2119 31.388 85L64.612 85C65.5548 87.2119 66.0275 89.5957 66 92L68 92C68 80.129 59.19 74.8 50.142 70 59.19 65.2 68 59.871 68 48ZM32.41 13 63.59 13C60.371 18.268 54.335 21.533 48 24.869 41.665 21.533 35.629 18.268 32.41 13ZM48 27.131C54.335 30.467 60.371 33.731 63.59 39L32.41 39C35.629 33.732 41.665 30.467 48 27.131ZM31.388 41 64.612 41C66.4627 45.4832 66.4627 50.5168 64.612 55L31.388 55C29.5373 50.5168 29.5373 45.4832 31.388 41ZM63.588 83 32.41 83C35.629 77.732 41.665 74.467 48 71.131 54.335 74.467 60.371 77.732 63.59 83ZM48 68.869C41.665 65.533 35.629 62.268 32.41 57L63.59 57C60.371 62.268 54.335 65.533 48 68.869Z" class="MsftOfcResponsive_Stroke_daf49d MsftOfcResponsive_Fill_daf49d" stroke="#DAF49D" stroke-width="1" stroke-linecap="butt" stroke-linejoin="miter" stroke-miterlimit="4" stroke-opacity="1" fill="#DAF49D" fill-opacity="1"/></g></svg>