<svg viewBox="0 0 96 96" xmlns="http://www.w3.org/2000/svg" xmlns:xlink="http://www.w3.org/1999/xlink" id="Icons_Brain_M" overflow="hidden"><style>
.MsftOfcThm_Text2_Fill_v2 {
 fill:#252845; 
}
.MsftOfcThm_Text2_Stroke_v2 {
 stroke:#252845; 
}
</style>
<g id="Icons"><path d="M85.5 41.2C85.8933 40.0403 86.0959 38.8245 86.1 37.6 86.07 31.9408 82.0537 27.0878 76.5 26 74.8401 21.1273 70.2476 17.8641 65.1 17.9 64.1587 17.9009 63.2201 18.0014 62.3 18.2 60.1674 15.7268 57.1534 14.1839 53.9 13.9 53.6447 13.8846 53.3901 13.8769 53.1363 13.8768 50.1285 13.8606 47.2244 14.9754 45 17 42.9493 15.6094 40.5295 14.8638 38.0518 14.8591 32.9991 14.8598 28.4935 18.0396 26.8 22.8L26.1 22.8C19.5342 22.7605 14.1709 28.0345 14.1 34.6L14.1 35.2C10.1055 37.4123 7.76279 41.7462 8.1 46.3 8.5 52.6 14.1 57.3 20.5 57.3L36 57.3C42.6051 57.2997 47.9902 62.5958 48.1 69.2L48.1 82 50.1 81.9839 50.1 69.1697C49.9462 61.4846 43.6866 55.3272 36 55.3L20.5 55.3C14.9909 55.3 10.421 51.291 10.0958 46.17 9.80039 42.389 11.7431 38.7845 15.0638 36.9525L16.1 36.3825 16.1 35.2 16.1 34.63C16.147 29.1541 20.6241 24.7531 26.1 24.8L28.2042 24.8 28.6811 23.4792C30.0885 19.5114 33.8418 16.8598 38.0518 16.8592 40.1303 16.8598 42.1605 17.4858 43.8783 18.6559L45.1866 19.5421 46.3514 18.4745C48.2073 16.7884 50.6289 15.8613 53.1363 15.8768 53.3391 15.8768 53.5424 15.8827 53.7463 15.8944 56.4645 16.1352 58.9826 17.4233 60.7686 19.4864L61.5491 20.4156 62.7338 20.1524C63.5116 19.986 64.3046 19.9015 65.1 19.9 69.397 19.8599 73.2334 22.585 74.6105 26.6556L74.9856 27.7369 76.1078 27.9613C80.7229 28.8684 84.0631 32.8967 84.1 37.6 84.095 38.6094 83.927 39.6114 83.6027 40.5673L83.2585 41.6 83.9385 42.45C86.5834 45.783 86.7519 50.4492 84.3544 53.9644L84.015 54.4561 84.0008 55.0535 83.9982 55.2196C84.0028 55.4821 83.9834 55.7445 83.9401 56.0035 82.5886 62.6707 76.0557 65.7186 74.4213 66.159L74.3419 66.1763C71.3689 66.8086 66.4967 69.4666 65.95 80L65.8648 82 67.9 82C67.9 69 74.1 68.3 74.9 68.1 77.5 67.4 84.4 63.8 85.9 56.4 85.9746 55.9708 86.0081 55.5355 86 55.1 88.9011 50.8588 88.6984 45.2218 85.5 41.2Z" class="MsftOfcThm_Text2_Stroke_v2 MsftOfcThm_Text2_Fill_v2" stroke="#252845" stroke-width="0.999955" stroke-linecap="butt" stroke-linejoin="miter" stroke-miterlimit="4" stroke-opacity="1" fill="#252845" fill-opacity="1"/><path d="M72.9121 45.6936C74.2827 44.8229 75.5174 43.7547 76.5762 42.5236 78.3408 40.1613 78.8472 36.0666 78.8682 35.8936 78.934 35.3452 78.5427 34.8474 77.9943 34.7816 77.4459 34.7159 76.9481 35.1071 76.8823 35.6555 76.8774 35.6929 76.4165 39.3955 74.9736 41.3267 74.3698 42.057 73.6734 42.7055 72.9022 43.2561 72.6702 40.0223 71.1907 37.0053 68.7759 34.842 67.4698 33.7923 66.0477 32.8958 64.5375 32.17 64.7826 31.2817 65.1989 30.4498 65.7632 29.7212 66.5937 28.8375 67.6432 28.1892 68.8052 27.8421 69.3403 27.7055 69.6634 27.1609 69.5267 26.6258 69.3901 26.0907 68.8455 25.7676 68.3104 25.9043 68.3051 25.9056 68.2997 25.907 68.2944 25.9085 66.7361 26.3607 65.3322 27.2328 64.2363 28.4293 63.531 29.3176 63.0018 30.3325 62.6771 31.4193 62.004 31.1859 61.3231 30.966 60.6523 30.7593 58.7279 30.2799 56.8899 29.504 55.2041 28.4593 53.8288 27.4309 52.9839 25.8427 52.8994 24.1275 52.9194 23.4256 52.9248 22.7588 52.9248 22.7588 52.9297 22.2065 52.486 21.7548 51.9337 21.7499 51.3814 21.745 50.9297 22.1887 50.9248 22.741 50.9248 22.741 50.9189 23.3894 50.9004 24.0726 50.9692 26.455 52.1289 28.6737 54.0459 30.09 54.477 30.3935 54.928 30.6677 55.3959 30.9108 54.0022 31.2783 52.2938 31.7141 51.0902 31.9719 47.1944 32.8347 43.1467 32.7314 39.3 31.6709 36.5775 30.6985 34.2942 28.7817 32.8649 26.2688 32.6072 25.7803 32.0023 25.5932 31.5138 25.8509 31.0337 26.1042 30.8433 26.6943 31.0849 27.1804 32.7483 30.1786 35.4601 32.4571 38.7 33.5791 38.8018 33.6111 38.9037 33.6291 39.0055 33.6597 37.8623 34.7898 36.5997 35.7925 35.24 36.65 31.997 38.2729 28.3221 38.8227 24.7461 38.22 23.2829 37.8689 21.9198 37.1866 20.7617 36.2258 20.3461 35.8621 19.7143 35.9043 19.3506 36.3199 18.9894 36.7327 19.0282 37.3594 19.4375 37.7246 20.8589 38.9205 22.5437 39.7623 24.3535 40.1809 25.3608 40.3745 26.3844 40.4707 27.4102 40.4683 26.2502 41.1785 25.1869 42.0356 24.2466 43.0183 22.2714 45.219 21.1081 48.029 20.95 50.9819 20.9541 51.5311 21.4008 51.9739 21.95 51.9731L21.9529 51.9731C22.5041 51.9707 22.9497 51.5234 22.95 50.9722 23.124 48.5097 24.1099 46.1744 25.7532 44.3322 27.5287 42.2971 32.5132 39.8698 32.7385 39.7607 33.9456 39.4467 35.111 38.9899 36.21 38.4 38.0666 37.1984 39.7798 35.7886 41.3164 34.1981L41.3206 34.1915C42.7056 34.4313 44.1086 34.5531 45.5142 34.5555 47.2979 34.5526 49.0776 34.3874 50.8314 34.0621 49.6752 35.8734 49.0097 37.954 48.9 40.1 48.9112 41.6837 49.1639 43.2563 49.6493 44.7638 48.3183 44.5634 46.9993 44.2901 45.6983 43.9452 44.6967 43.6066 43.7361 43.157 42.8346 42.6046 42.3679 42.3091 41.7501 42.4479 41.4546 42.9146 41.1591 43.3813 41.2979 43.9991 41.7646 44.2946 42.8134 44.941 43.9331 45.4644 45.1016 45.8546 46.8896 46.3126 48.7016 46.6711 50.5293 46.9283 50.7564 47.39 51.0179 47.8339 51.3115 48.2564 51.9277 49.1292 52.6302 49.9378 53.4082 50.67 53.8196 51.0387 54.452 51.004 54.8207 50.5925 55.1893 50.181 55.1546 49.5487 54.7432 49.18 54.0753 48.5448 53.471 47.8458 52.939 47.0931 51.6141 45.0007 50.9073 42.5766 50.9 40.1 50.9 36.8461 53.6524 33.4645 53.6939 33.414 55.8799 32.8695 58.2104 32.2252 58.3424 32.1886 58.371 32.1806 58.3913 32.1601 58.4186 32.15 58.9674 32.3322 59.5186 32.5028 60.0646 32.6708 61.0484 32.9733 61.9776 33.2592 62.8595 33.6056 64.5016 34.3092 66.0434 35.2268 67.4449 36.3346 69.6361 38.2908 70.9075 41.0755 70.9503 44.0126 70.9679 45.1583 70.8772 46.3032 70.6792 47.4318 69.2273 46.9388 67.7406 46.5549 66.2315 46.2833 64.8757 46.1819 63.5144 46.1798 62.1583 46.277 61.6072 46.3139 61.1904 46.7906 61.2274 47.3417 61.2643 47.8928 61.741 48.3096 62.2921 48.2726 63.5159 48.1819 64.7448 48.1798 65.9689 48.2663 67.4068 48.5352 68.8233 48.9081 70.2073 49.382 69.6722 51.0134 68.8239 52.5247 67.71 53.8313 66.7172 54.8408 65.6113 55.7324 64.4141 56.4885 61.6241 58.4414 58.4619 60.6545 57.4854 64.2366 57.184 65.9088 57.0101 67.6015 56.9654 69.3 56.9654 70 56.9538 79.6331 56.951 82L58.951 82C58.9538 79.6282 58.9654 69.9993 58.9654 69.3 59.0102 67.779 59.1605 66.263 59.4154 64.7629 60.2021 61.8784 63.0492 59.8855 65.5614 58.127 66.825 57.313 67.9983 56.3667 69.0614 55.3042 69.8158 56.2044 70.6365 57.0467 71.5168 57.8242 72.6394 58.7424 74.2468 59.8325 74.3147 59.8784 74.7729 60.1867 75.3943 60.0652 75.7026 59.607 76.0098 59.1505 75.8905 58.5317 75.4357 58.2221 75.4201 58.2114 73.8347 57.1362 72.7834 56.2763 71.8963 55.4738 71.0693 54.6073 70.309 53.6838 71.8873 51.3078 72.7859 48.5456 72.9078 45.6958Z" class="MsftOfcThm_Text2_Stroke_v2 MsftOfcThm_Text2_Fill_v2" stroke="#252845" stroke-width="0.999955" stroke-linecap="butt" stroke-linejoin="miter" stroke-miterlimit="4" stroke-opacity="1" fill="#252845" fill-opacity="1"/></g></svg>