<svg viewBox="0 0 96 96" xmlns="http://www.w3.org/2000/svg" xmlns:xlink="http://www.w3.org/1999/xlink" id="Icons_BarChart_LTR_M" overflow="hidden"><style>
.MsftOfcThm_Text2_Fill_v2 {
 fill:#252845; 
}
.MsftOfcThm_Text2_Stroke_v2 {
 stroke:#252845; 
}
</style>
<g id="Icons"><path d="M15.998 14 13.998 14 13.998 82 81.967 82 81.967 80 15.998 80 15.998 14Z" class="MsftOfcThm_Text2_Stroke_v2 MsftOfcThm_Text2_Fill_v2" stroke="#252845" stroke-width="0.999974" stroke-linecap="butt" stroke-linejoin="miter" stroke-miterlimit="4" stroke-opacity="1" fill="#252845" fill-opacity="1"/><path d="M34 74.016 34 35.006 22 35.006 22 74.016ZM24 37.006 32 37.006 32 72.016 24 72.016Z" class="MsftOfcThm_Text2_Stroke_v2 MsftOfcThm_Text2_Fill_v2" stroke="#252845" stroke-width="0.999974" stroke-linecap="butt" stroke-linejoin="miter" stroke-miterlimit="4" stroke-opacity="1" fill="#252845" fill-opacity="1"/><path d="M50 74.016 50 14 38 14 38 74.016ZM40 16 48 16 48 72.016 40 72.016Z" class="MsftOfcThm_Text2_Stroke_v2 MsftOfcThm_Text2_Fill_v2" stroke="#252845" stroke-width="0.999974" stroke-linecap="butt" stroke-linejoin="miter" stroke-miterlimit="4" stroke-opacity="1" fill="#252845" fill-opacity="1"/><path d="M66 74.016 66 35.006 54 35.006 54 74.016ZM56 37.006 64 37.006 64 72.016 56 72.016Z" class="MsftOfcThm_Text2_Stroke_v2 MsftOfcThm_Text2_Fill_v2" stroke="#252845" stroke-width="0.999974" stroke-linecap="butt" stroke-linejoin="miter" stroke-miterlimit="4" stroke-opacity="1" fill="#252845" fill-opacity="1"/><path d="M70 74.016 82 74.016 82 52.011 70 52.011ZM72 54.011 80 54.011 80 72.016 72 72.016Z" class="MsftOfcThm_Text2_Stroke_v2 MsftOfcThm_Text2_Fill_v2" stroke="#252845" stroke-width="0.999974" stroke-linecap="butt" stroke-linejoin="miter" stroke-miterlimit="4" stroke-opacity="1" fill="#252845" fill-opacity="1"/></g></svg>