<svg viewBox="0 0 96 96" xmlns="http://www.w3.org/2000/svg" xmlns:xlink="http://www.w3.org/1999/xlink" id="Icons_Nerve_M" overflow="hidden"><style>
.MsftOfcResponsive_Fill_daf49d {
 fill:#DAF49D; 
}
.MsftOfcResponsive_Stroke_daf49d {
 stroke:#DAF49D; 
}
</style>
<g id="Icons"><path d="M53.314 51.863C53.9623 52.2483 54.6385 52.5846 55.337 52.869 56.453 53.369 58.507 54.851 58.423 57.152 57.9866 58.6351 57.4695 60.0933 56.874 61.52 55.35 65.379 53.624 69.753 53.974 75.67 54.0058 76.1987 54.4443 76.611 54.974 76.61L55.035 76.61C55.5861 76.5768 56.006 76.1031 55.973 75.552 55.651 70.19 57.218 66.097 58.642 62.487 59.464 65.399 61.121 69.76 64.188 72.805 64.5804 73.1949 65.2146 73.1929 65.6045 72.8005 65.9944 72.4081 65.9924 71.7739 65.6 71.384 61.188 67.003 59.931 59.184 59.92 59.106L59.92 59.101C60.058 58.689 60.181 58.275 60.295 57.861L60.295 57.861C60.8427 56.0279 62.1449 54.5147 63.876 53.7L64.276 53.611C64.9581 53.4771 65.6254 53.2761 66.268 53.011 67.3673 52.6477 68.4 52.1073 69.325 51.411L69.848 51.047C70.3676 50.775 70.9501 50.6456 71.536 50.672 72.47 50.6639 73.3888 50.9096 74.194 51.383 78.3792 54.6672 81.5292 59.0879 83.267 64.116 83.4099 64.5127 83.7863 64.7771 84.208 64.777 84.3239 64.7765 84.4389 64.7562 84.548 64.717 85.067 64.5291 85.3355 63.9561 85.148 63.437 83.6189 59.0522 81.1025 55.0776 77.793 51.82 81.0496 52.4451 84.2008 53.5299 87.152 55.042 87.3035 55.1313 87.4761 55.1786 87.652 55.179 88.2043 55.1771 88.6504 54.7278 88.6485 54.1755 88.6473 53.8209 88.4584 53.4935 88.152 53.315 84.296 51.066 78.435 49.86 76.165 49.456 74.765 49.078 74.023 46.412 74.606 45.045 75.9082 42.301 76.2512 39.1992 75.58 36.237L75.5 35.854C75.274 34.87 75.775 32.296 77.424 31.608 78.073 31.401 78.66 31.234 79.158 31.123 83.836 30.08 91.551 30.599 91.628 30.603 92.1783 30.6495 92.6622 30.2411 92.7087 29.6908 92.7552 29.1404 92.3468 28.6566 91.7964 28.6101 91.7863 28.6092 91.7762 28.6085 91.766 28.608 88.4224 28.3954 85.0677 28.4289 81.729 28.708 83.9589 26.9142 85.6067 24.4994 86.464 21.769 86.5985 21.2333 86.2732 20.69 85.7375 20.5555 85.2018 20.421 84.6585 20.7463 84.524 21.282 83.553 25.142 79.367 28.136 78.024 29.01 76.9909 29.6558 75.8039 30.0138 74.586 30.047 73.737 30.0906 72.8998 29.8331 72.222 29.32L71.789 28.857C70.5726 27.4209 69.0294 26.2974 67.289 25.581 66.721 25.3055 66.1314 25.077 65.526 24.898 65.0071 24.7745 64.5353 24.5028 64.168 24.116 63.1888 23.009 62.9375 21.436 63.523 20.079 63.723 19.748 63.917 19.418 64.117 19.095 66.301 15.572 68.558 11.93 67.457 5.373 67.3656 4.82817 66.8498 4.4606 66.305 4.552 65.7602 4.6434 65.3926 5.15917 65.484 5.704 66.372 10.988 64.829 14.087 62.979 17.127 62.706 14.046 61.747 9.621 58.587 7.608 58.1198 7.31142 57.5006 7.44977 57.204 7.917 56.9074 8.38423 57.0458 9.00342 57.513 9.3 60.7 11.329 61.065 17.036 61.079 19.319 61.0757 19.9267 60.9287 20.525 60.65 21.065 60.516 21.334 60.386 21.607 60.257 21.878 59.398 23.478 56.757 24.795 55.91 25.063 55.821 25.095 55.731 25.117 55.642 25.15 53.4134 25.9968 51.4194 27.3637 49.826 29.137 49.1001 29.6227 48.2387 29.8653 47.366 29.83 46.7454 29.837 46.1299 29.7162 45.558 29.475 44.1841 28.5461 42.8963 27.4959 41.71 26.337 39.211 23.9251 38.4289 20.2365 39.734 17.018 39.9662 16.5168 39.7482 15.9222 39.247 15.69 38.7458 15.4578 38.1512 15.6758 37.919 16.177 36.3096 20.1562 37.2414 24.7123 40.284 27.74 40.813 28.277 41.361 28.757 41.915 29.218 38.6275 28.5778 35.4388 27.5073 32.431 26.034 31.9349 25.7913 31.336 25.9968 31.0933 26.4929 30.8506 26.989 31.0561 27.5879 31.5522 27.8306 31.5676 27.8381 31.5832 27.8453 31.599 27.852 38.306 30.925 42.099 31.412 43.836 31.412 43.969 31.412 44.066 31.405 44.173 31.401 45.8092 31.8552 46.8384 33.4713 46.558 35.146L46.498 35.396C46.1297 36.8449 45.983 38.3412 46.063 39.834L46.063 39.874C46.063 40.364 45.858 44.742 40.463 48.563 39.5052 48.0265 38.3528 47.9645 37.343 48.395 36.2976 48.8407 35.2813 49.3517 34.3 49.925 33.0329 50.6758 32.36 52.1302 32.608 53.582 31.8068 53.4274 30.9768 53.5527 30.257 53.937 29.536 54.3459 28.9669 54.9774 28.635 55.737 28.093 56.9009 27.7354 58.1421 27.575 59.416 27.3999 60.6948 27.9325 61.9678 28.966 62.741 27.9846 63.2949 27.3241 64.2815 27.186 65.4 27.0997 66.0318 26.9264 66.6487 26.671 67.233 26.3372 67.9935 26.283 68.8475 26.518 69.644 26.3331 69.6646 26.1502 69.7001 25.971 69.75 25.0659 70.0156 24.3052 70.633 23.859 71.464 23.5521 72.0523 23.1636 72.5943 22.705 73.074 21.4228 74.3999 21.3724 76.4877 22.589 77.874 21.7512 78.9184 20.8413 79.9028 19.866 80.82 19.6224 81.0489 19.3166 81.2009 18.987 81.257 12.887 82.29 10.008 79.357 9.887 79.229 9.52855 78.8088 8.89736 78.7588 8.47721 79.1173 8.05705 79.4757 8.00703 80.1069 8.36547 80.5271 8.38193 80.5463 8.39912 80.565 8.417 80.583 8.547 80.725 11.161 83.483 16.475 83.483L16.545 83.483C14.0839 85.2215 11.268 86.393 8.3 86.913 7.74772 86.9406 7.32239 87.4107 7.35 87.963 7.37761 88.5153 7.84772 88.9406 8.4 88.913 8.432 88.913 8.466 88.913 8.5 88.908 11.2235 88.4887 13.8362 87.5314 16.186 86.092 14.9964 88.2716 14.4727 90.7525 14.68 93.227 14.742 93.7274 15.1668 94.1033 15.671 94.104 15.7124 94.1041 15.7538 94.1018 15.795 94.097 16.3431 94.0289 16.7322 93.5294 16.664 92.9813 16.664 92.9812 16.664 92.9811 16.664 92.981 16.153 88.852 19.323 84.296 21.277 82.255L21.286 82.242C22.3624 81.2197 23.365 80.1223 24.286 78.958 25.5364 79.3331 26.8914 78.974 27.792 78.029 28.706 77.079 29.4829 76.0059 30.1 74.841 30.5399 74.0301 30.644 73.0789 30.39 72.192 31.6074 72.0247 32.6526 71.2415 33.155 70.12 33.6852 68.9136 34.0441 67.6389 34.221 66.333 34.4048 65.0467 33.8722 63.7626 32.832 62.984 33.7948 62.4383 34.4484 61.4752 34.6 60.379 34.667 59.7868 34.833 59.2102 35.091 58.673 35.439 57.9927 35.5559 57.2176 35.424 56.465 36.2766 56.6274 37.1592 56.475 37.908 56.036 38.633 55.6129 39.3842 55.2365 40.157 54.909 41.335 54.4161 42.145 53.3135 42.263 52.042L42.285 52.05 42.673 51.866C44.545 51.0466 46.5591 50.6009 48.602 50.554 50.1193 50.5185 51.6174 50.8989 52.934 51.654 52.934 51.654 53.142 51.76 53.314 51.863ZM28.345 73.89C27.815 74.8916 27.1472 75.8139 26.361 76.63 25.7643 77.2439 24.7829 77.2577 24.169 76.661 23.5551 76.0643 23.5413 75.0829 24.138 74.469 24.7267 73.8581 25.2253 73.1665 25.619 72.415 26.0403 71.6698 26.9859 71.4072 27.7311 71.8284 28.4569 72.2387 28.7281 73.1495 28.345 73.89ZM32.245 66.049C32.0939 67.1719 31.7866 68.2682 31.332 69.306 30.9729 70.0767 30.0677 70.4243 29.285 70.092 28.5039 69.7432 28.1524 68.8281 28.499 68.046 28.8392 67.2695 29.0678 66.4486 29.178 65.608 29.2887 64.8476 29.9386 64.2823 30.707 64.278 30.7819 64.2784 30.8568 64.2837 30.931 64.294 31.778 64.4167 32.3658 65.2018 32.245 66.049ZM33.312 57.769C32.9529 58.5041 32.7203 59.2945 32.624 60.107 32.5077 60.9548 31.7263 61.5478 30.8785 61.4315 30.0307 61.3152 29.4377 60.5338 29.554 59.686 29.6979 58.5312 30.036 57.4091 30.554 56.367 30.9173 55.5925 31.8397 55.2591 32.6142 55.6224 33.3887 55.9857 33.7221 56.9081 33.3588 57.6826 33.3454 57.7111 33.3311 57.7393 33.316 57.767ZM40.194 52.222C40.0438 52.6046 39.7467 52.911 39.369 53.073 38.5187 53.4341 37.692 53.8486 36.894 54.314 36.1538 54.7266 35.2201 54.487 34.77 53.769 34.3361 53.032 34.5797 52.0829 35.315 51.646 36.2257 51.1151 37.1686 50.6412 38.138 50.227 38.9245 49.8897 39.8357 50.2512 40.177 51.036 40.3409 51.4132 40.347 51.8403 40.194 52.222ZM51.315 30.469C52.7004 28.9314 54.4327 27.7466 56.368 27.013L56.548 26.955C58.4788 26.2694 60.2007 25.0986 61.548 23.555 61.9782 24.7764 62.8247 25.8073 63.939 26.467L64.362 26.638C65.0008 26.8093 65.6259 27.0282 66.232 27.293 67.7994 27.893 69.1907 28.8775 70.278 30.156L70.878 30.793C71.8333 31.5843 73.0316 32.0231 74.272 32.036 73.5747 33.3264 73.319 34.8096 73.544 36.259L73.631 36.675C74.2113 39.2271 73.907 41.9006 72.768 44.257 72.2317 45.7377 72.2981 47.3698 72.953 48.802 72.4838 48.7138 72.0074 48.6693 71.53 48.669 70.5661 48.6409 69.6129 48.8774 68.774 49.353L68.737 49.377 68.7 49.402 68.177 49.766 68.152 49.784 68.127 49.802C67.3485 50.3871 66.4779 50.8383 65.551 51.137 64.9964 51.3673 64.4198 51.5402 63.83 51.653L63.43 51.742 63.238 51.795C61.871 52.3467 60.6864 53.2711 59.819 54.463 59.0024 52.9489 57.7108 51.7451 56.143 51.037L56.1 51.02C55.4967 50.7729 54.9118 50.4828 54.35 50.152 54.232 50.082 53.918 49.905 53.918 49.905 52.3029 48.9823 50.4677 48.5154 48.608 48.554 46.4231 48.5971 44.2652 49.0453 42.244 49.876L42.135 49.823C47.728 45.602 48.057 40.829 48.064 39.886L48.064 39.72C47.9953 38.421 48.1245 37.1192 48.447 35.859L48.511 35.589C48.7476 34.2892 48.506 32.9477 47.831 31.812 49.01 31.7734 50.1496 31.3787 51.1 30.68Z" class="MsftOfcResponsive_Stroke_daf49d MsftOfcResponsive_Fill_daf49d" stroke="#DAF49D" stroke-width="0.999917" stroke-linecap="butt" stroke-linejoin="miter" stroke-miterlimit="4" stroke-opacity="1" fill="#DAF49D" fill-opacity="1"/><path d="M60.567 33.1C57.2533 33.1 54.567 35.7863 54.567 39.1 54.567 42.4137 57.2533 45.1 60.567 45.1 63.8807 45.1 66.567 42.4137 66.567 39.1 66.5631 35.7879 63.8791 33.1039 60.567 33.1ZM60.567 43.1C58.3579 43.1 56.567 41.3091 56.567 39.1 56.567 36.8909 58.3579 35.1 60.567 35.1 62.7761 35.1 64.567 36.8909 64.567 39.1 64.567 41.3091 62.7761 43.1 60.567 43.1Z" class="MsftOfcResponsive_Stroke_daf49d MsftOfcResponsive_Fill_daf49d" stroke="#DAF49D" stroke-width="0.999917" stroke-linecap="butt" stroke-linejoin="miter" stroke-miterlimit="4" stroke-opacity="1" fill="#DAF49D" fill-opacity="1"/></g></svg>