<svg viewBox="0 0 96 96" xmlns="http://www.w3.org/2000/svg" xmlns:xlink="http://www.w3.org/1999/xlink" id="Icons_TestTubes_M" overflow="hidden"><style>
.MsftOfcResponsive_Fill_daf49d {
 fill:#DAF49D; 
}
.MsftOfcResponsive_Stroke_daf49d {
 stroke:#DAF49D; 
}
</style>
<g id="Icons"><path d="M87 78 87 23 85 23 85 33 77 33 77 16.657C76.9981 15.8607 77.3146 15.0967 77.879 14.535L78.707 13.707C79.0975 13.3164 79.0974 12.6833 78.7068 12.2928 78.5193 12.1054 78.2651 12.0001 78 12L62 12C61.4477 12.0001 61.0001 12.4479 61.0002 13.0002 61.0003 13.2653 61.1056 13.5195 61.293 13.707L62.121 14.535C62.6858 15.0965 63.0023 15.8606 63 16.657L63 33 55 33 55 16.657C54.9981 15.8607 55.3146 15.0967 55.879 14.535L56.707 13.707C57.0975 13.3164 57.0974 12.6833 56.7068 12.2928 56.5193 12.1054 56.2651 12.0001 56 12L40 12C39.4477 12.0001 39.0001 12.4479 39.0002 13.0002 39.0003 13.2653 39.1056 13.5195 39.293 13.707L40.121 14.535C40.6858 15.0965 41.0023 15.8606 41 16.657L41 33 33 33 33 16.657C32.9981 15.8607 33.3146 15.0967 33.879 14.535L34.707 13.707C35.0975 13.3164 35.0974 12.6833 34.7068 12.2928 34.5193 12.1054 34.2651 12.0001 34 12L18 12C17.4477 12.0001 17.0001 12.4479 17.0002 13.0002 17.0003 13.2653 17.1056 13.5195 17.293 13.707L18.121 14.535C18.6858 15.0965 19.0023 15.8606 19 16.657L19 33 11 33 11 23 9 23 9 78 3 78 3 86 93 86 93 78ZM65 29 75 29 75 67.1C74.9972 69.8051 72.8051 71.9972 70.1 72L69.9 72C67.1949 71.9972 65.0028 69.8051 65 67.1ZM75.763 14C75.2622 14.7956 74.9976 15.717 75 16.657L75 27 65 27 65 16.657C65.0024 15.717 64.7378 14.7956 64.237 14ZM43 29 53 29 53 67.1C52.9972 69.8051 50.8051 71.9972 48.1 72L47.9 72C45.195 71.9972 43.0028 69.8051 43 67.1ZM53.763 14C53.2622 14.7956 52.9976 15.717 53 16.657L53 27 43 27 43 16.657C43.0024 15.717 42.7378 14.7956 42.237 14ZM21 29 31 29 31 67.1C30.9972 69.8051 28.8051 71.9972 26.1 72L25.9 72C23.1949 71.9972 21.0028 69.8051 21 67.1ZM31.763 14C31.2622 14.7956 30.9976 15.717 31 16.657L31 27 21 27 21 16.657C21.0024 15.717 20.7378 14.7956 20.237 14ZM11 35 19 35 19 67.1C19.005 70.9087 22.0913 73.995 25.9 74L26.1 74C29.9087 73.995 32.995 70.9087 33 67.1L33 35 41 35 41 67.1C41.005 70.9087 44.0913 73.995 47.9 74L48.1 74C51.9087 73.995 54.995 70.9087 55 67.1L55 35 63 35 63 67.1C63.005 70.9087 66.0913 73.995 69.9 74L70.1 74C73.9087 73.995 76.995 70.9087 77 67.1L77 35 85 35 85 78 11 78ZM91 84 5 84 5 80 91 80Z" class="MsftOfcResponsive_Stroke_daf49d MsftOfcResponsive_Fill_daf49d" stroke="#DAF49D" stroke-width="1.00007" stroke-linecap="butt" stroke-linejoin="miter" stroke-miterlimit="4" stroke-opacity="1" fill="#DAF49D" fill-opacity="1"/></g></svg>