<svg viewBox="0 0 96 96" xmlns="http://www.w3.org/2000/svg" xmlns:xlink="http://www.w3.org/1999/xlink" id="Icons_UpwardTrend_LTR_M" overflow="hidden"><style>
.MsftOfcResponsive_Fill_daf49d {
 fill:#DAF49D; 
}
.MsftOfcResponsive_Stroke_daf49d {
 stroke:#DAF49D; 
}
</style>
<g id="Icons"><path d="M39 52.452 44.3 57.38 51.743 50.144 56.4 45.5 61.713 50.188 79.732 32.162C79.7359 32.1581 79.7423 32.1582 79.7461 32.1621 79.7479 32.164 79.749 32.1664 79.749 32.169L79.749 40.733 81.749 40.733 81.749 28.733 69.776 28.733 69.776 30.733 78.307 30.733C78.3125 30.7325 78.3174 30.7366 78.3179 30.7421 78.3181 30.745 78.3171 30.7479 78.315 30.75L61.625 47.441 56.312 42.753 50.345 48.72 44.276 54.62 38.954 49.674 23.336 65.293 24.75 66.707Z" class="MsftOfcResponsive_Stroke_daf49d MsftOfcResponsive_Fill_daf49d" stroke="#DAF49D" stroke-width="0.999974" stroke-linecap="butt" stroke-linejoin="miter" stroke-miterlimit="4" stroke-opacity="1" fill="#DAF49D" fill-opacity="1"/><path d="M16.042 80 16.042 14 14.042 14 14.042 82 82.012 82 82.012 80 16.042 80Z" class="MsftOfcResponsive_Stroke_daf49d MsftOfcResponsive_Fill_daf49d" stroke="#DAF49D" stroke-width="0.999974" stroke-linecap="butt" stroke-linejoin="miter" stroke-miterlimit="4" stroke-opacity="1" fill="#DAF49D" fill-opacity="1"/></g></svg>