<svg viewBox="0 0 96 96" xmlns="http://www.w3.org/2000/svg" xmlns:xlink="http://www.w3.org/1999/xlink" id="Icons_Lightbulb_M" overflow="hidden"><style>
.MsftOfcThm_Text2_Fill_v2 {
 fill:#252845; 
}
.MsftOfcThm_Text2_Stroke_v2 {
 stroke:#252845; 
}
</style>
<g id="Icons"><path d="M61.071 58.824C62.131 56.664 64.631 51.824 66.921 49.324 68.7791 47.2303 70.2488 44.8219 71.261 42.212 72.3217 39.4449 72.9095 36.5191 73 33.557L73 32.7C73 18.8929 61.8071 7.7 48 7.7 34.1929 7.7 23 18.8929 23 32.7L23 33.56C23.091 36.5215 23.6792 39.4466 24.74 42.213 25.7522 44.8229 27.2219 47.2313 29.08 49.325 31.37 51.815 33.87 56.667 34.93 58.825 35.2527 59.4748 35.9155 59.8858 36.641 59.886L59.36 59.886C60.0857 59.8856 60.7486 59.4742 61.071 58.824ZM59.3 57.885 36.7 57.885C35.41 55.261 32.925 50.545 30.579 47.994 28.8792 46.0812 27.5351 43.8799 26.61 41.494 25.6315 38.9464 25.0872 36.2527 25 33.525L25 32.734C24.9906 20.0315 35.2804 9.72639 47.983 9.717 60.6856 9.70761 70.9906 19.9975 71 32.7L71 33.529C70.914 36.2534 70.3715 38.9441 69.395 41.489 68.4749 43.8686 67.1373 46.0648 65.445 47.974 63.066 50.57 60.583 55.281 59.3 57.885Z" class="MsftOfcThm_Text2_Stroke_v2 MsftOfcThm_Text2_Fill_v2" stroke="#252845" stroke-width="1.0001" stroke-linecap="butt" stroke-linejoin="miter" stroke-miterlimit="4" stroke-opacity="1" fill="#252845" fill-opacity="1"/><path d="M59.158 65.941 37.158 65.941C36.6057 65.941 36.158 66.3887 36.158 66.941 36.158 67.4933 36.6057 67.941 37.158 67.941L59.158 67.941C59.7103 67.941 60.158 67.4933 60.158 66.941 60.158 66.3887 59.7103 65.941 59.158 65.941Z" class="MsftOfcThm_Text2_Stroke_v2 MsftOfcThm_Text2_Fill_v2" stroke="#252845" stroke-width="1.0001" stroke-linecap="butt" stroke-linejoin="miter" stroke-miterlimit="4" stroke-opacity="1" fill="#252845" fill-opacity="1"/><path d="M60.158 75.07C60.158 74.5177 59.7103 74.07 59.158 74.07L37.158 74.07C36.6057 74.07 36.158 74.5177 36.158 75.07 36.158 75.6223 36.6057 76.07 37.158 76.07L59.158 76.07C59.7103 76.07 60.158 75.6223 60.158 75.07Z" class="MsftOfcThm_Text2_Stroke_v2 MsftOfcThm_Text2_Fill_v2" stroke="#252845" stroke-width="1.0001" stroke-linecap="butt" stroke-linejoin="miter" stroke-miterlimit="4" stroke-opacity="1" fill="#252845" fill-opacity="1"/><path d="M53.8 83.08C53.8442 82.5295 53.4337 82.0474 52.8832 82.0032 52.8555 82.001 52.8278 81.9999 52.8 82L43.246 82C42.6937 81.9982 42.2445 82.4444 42.2427 82.9967 42.2426 83.0248 42.2437 83.053 42.246 83.081 42.498 86.271 45.2884 88.6527 48.4784 88.4006 51.3182 88.1763 53.5736 85.9208 53.798 83.081ZM48.03 86.417C46.4715 86.4035 45.0762 85.4481 44.5 84L51.561 84C50.9868 85.4497 49.5903 86.4059 48.031 86.417Z" class="MsftOfcThm_Text2_Stroke_v2 MsftOfcThm_Text2_Fill_v2" stroke="#252845" stroke-width="1.0001" stroke-linecap="butt" stroke-linejoin="miter" stroke-miterlimit="4" stroke-opacity="1" fill="#252845" fill-opacity="1"/></g></svg>