<svg viewBox="0 0 96 96" xmlns="http://www.w3.org/2000/svg" xmlns:xlink="http://www.w3.org/1999/xlink" id="Icons_Lecturer_M" overflow="hidden"><style>
.MsftOfcResponsive_Fill_daf49d {
 fill:#DAF49D; 
}
.MsftOfcResponsive_Stroke_daf49d {
 stroke:#DAF49D; 
}
</style>
<g id="Icons"><path d="M48 19.657C52.4183 19.657 56 16.0753 56 11.657 56 7.23872 52.4183 3.657 48 3.657 43.5817 3.657 40 7.23872 40 11.657 40.005 16.0732 43.5838 19.652 48 19.657ZM48 5.657C51.3137 5.657 54 8.34329 54 11.657 54 14.9707 51.3137 17.657 48 17.657 44.6863 17.657 42 14.9707 42 11.657 42.0039 8.34489 44.6879 5.66086 48 5.657Z" class="MsftOfcResponsive_Stroke_daf49d MsftOfcResponsive_Fill_daf49d" stroke="#DAF49D" stroke-width="1.00009" stroke-linecap="butt" stroke-linejoin="miter" stroke-miterlimit="4" stroke-opacity="1" fill="#DAF49D" fill-opacity="1"/><path d="M32.985 30.827C33.0458 29.8518 33.4747 28.936 34.185 28.265 36.4542 26.6385 38.9817 25.4069 41.661 24.622 43.7217 24.0198 45.8535 23.6953 48 23.657 50.1443 23.6637 52.2757 23.9879 54.325 24.619 57.0271 25.3097 59.5614 26.5404 61.775 28.237 62.4905 28.9309 62.9324 29.8591 63.02 30.852L63.78 34.652 65.819 34.652 64.988 30.502C64.8391 29.0281 64.1413 27.6641 63.033 26.681 60.6147 24.817 57.8435 23.4627 54.887 22.7 52.6554 22.0145 50.3345 21.663 48 21.657 45.6724 21.6966 43.3606 22.0473 41.126 22.7 38.2009 23.5495 35.4437 24.8958 32.975 26.68 31.8741 27.6516 31.1767 29 31.02 30.46L30.181 34.654 32.22 34.654Z" class="MsftOfcResponsive_Stroke_daf49d MsftOfcResponsive_Fill_daf49d" stroke="#DAF49D" stroke-width="1.00009" stroke-linecap="butt" stroke-linejoin="miter" stroke-miterlimit="4" stroke-opacity="1" fill="#DAF49D" fill-opacity="1"/><path d="M68 49.657 72 37.657 24 37.657 28 49.657 34 49.657 37.809 89.657 32 89.657 32 91.657 64 91.657 64 89.657 58.193 89.657 62.003 49.657ZM39.817 89.657 36.008 49.657 59.994 49.657 56.184 89.657ZM60.181 47.657 29.443 47.657 26.776 39.657 69.229 39.657 66.562 47.657 60.184 47.657Z" class="MsftOfcResponsive_Stroke_daf49d MsftOfcResponsive_Fill_daf49d" stroke="#DAF49D" stroke-width="1.00009" stroke-linecap="butt" stroke-linejoin="miter" stroke-miterlimit="4" stroke-opacity="1" fill="#DAF49D" fill-opacity="1"/></g></svg>