<svg viewBox="0 0 96 96" xmlns="http://www.w3.org/2000/svg" xmlns:xlink="http://www.w3.org/1999/xlink" id="Icons_Marker_M" overflow="hidden"><style>
.MsftOfcThm_Text2_Fill_v2 {
 fill:#252845; 
}
.MsftOfcThm_Text2_Stroke_v2 {
 stroke:#252845; 
}
</style>
<g id="Icons"><path d="M47.933 14C40.9936 13.9922 34.5063 17.4421 30.633 23.2 26.7392 28.9452 25.9168 36.2368 28.433 42.705L37.933 63.711 46.133 80.911C46.6441 81.9051 47.8644 82.2966 48.8585 81.7855 49.2341 81.5924 49.5399 81.2866 49.733 80.911L57.933 63.711 67.433 42.705C69.948 36.2383 69.1255 28.9488 65.233 23.205 61.3608 17.4452 54.8734 13.9934 47.933 14ZM65.587 41.938 56.128 62.853 47.946 80.019 47.919 80.019 39.754 62.89 30.278 41.938C28.0199 36.0897 28.7725 29.5059 32.292 24.318 38.1163 15.6798 49.8405 13.3988 58.4787 19.2231 60.4933 20.5815 62.2265 22.3162 63.583 24.332 67.0956 29.5177 67.8443 36.0955 65.587 41.938Z" class="MsftOfcThm_Text2_Stroke_v2 MsftOfcThm_Text2_Fill_v2" stroke="#252845" stroke-width="1.00009" stroke-linecap="butt" stroke-linejoin="miter" stroke-miterlimit="4" stroke-opacity="1" fill="#252845" fill-opacity="1"/><path d="M47.933 26C42.9624 26 38.933 30.0294 38.933 35 38.933 39.9706 42.9624 44 47.933 44 52.9036 44 56.933 39.9706 56.933 35 56.9529 30.0494 52.9558 26.0199 48.0051 26 47.9811 25.9999 47.957 25.9999 47.933 26ZM47.933 42.005C44.067 42.005 40.933 38.871 40.933 35.005 40.933 31.139 44.067 28.005 47.933 28.005 51.799 28.005 54.933 31.139 54.933 35.005 54.9752 38.8304 51.9083 41.9658 48.0828 42.008 48.0329 42.0085 47.9829 42.0085 47.933 42.008Z" class="MsftOfcThm_Text2_Stroke_v2 MsftOfcThm_Text2_Fill_v2" stroke="#252845" stroke-width="1.00009" stroke-linecap="butt" stroke-linejoin="miter" stroke-miterlimit="4" stroke-opacity="1" fill="#252845" fill-opacity="1"/></g></svg>