<svg viewBox="0 0 96 96" xmlns="http://www.w3.org/2000/svg" xmlns:xlink="http://www.w3.org/1999/xlink" id="Icons_ClipboardChecked_RTL_M" overflow="hidden"><style>
.MsftOfcResponsive_Stroke_daf49d {
 stroke:#DAF49D; 
}
</style>
<g id="Icons"><path d="M51.5 16.5C51.5212 14.5972 50.0026 13.034 48.1 13L48 13C46.067 13 44.5 14.567 44.5 16.5 44.5 18.433 46.067 20 48 20 49.933 20 51.5 18.433 51.5 16.5ZM49.5 16.483C49.5094 17.3114 48.8455 17.9905 48.0171 17.9999 47.1887 18.0093 46.5096 17.3454 46.5002 16.517 46.4908 15.6886 47.1547 15.0095 47.9831 15.0001 47.9887 15 47.9944 15 48 15L48.065 15C48.8706 15.0137 49.5128 15.6774 49.5 16.483Z" class="MsftOfcResponsive_Stroke_daf49d" stroke="#DAF49D" stroke-width="0.999933" stroke-linecap="butt" stroke-linejoin="miter" stroke-miterlimit="4" stroke-opacity="1" fill="#DAF49D" fill-opacity="1"/><path d="M67.956 34.705 66.542 33.291 59.249 40.583 55.956 37.291 54.542 38.705 59.249 43.412 67.956 34.705Z" class="MsftOfcResponsive_Stroke_daf49d" stroke="#DAF49D" stroke-width="0.999933" stroke-linecap="butt" stroke-linejoin="miter" stroke-miterlimit="4" stroke-opacity="1" fill="#DAF49D" fill-opacity="1"/><rect x="27.999" y="36.998" width="21" height="2" class="MsftOfcResponsive_Stroke_daf49d" stroke="#DAF49D" stroke-width="0.999933" stroke-linecap="butt" stroke-linejoin="miter" stroke-miterlimit="4" stroke-opacity="1" fill="#DAF49D" fill-opacity="1"/><path d="M67.956 46.707 66.542 45.293 59.249 52.586 55.956 49.293 54.542 50.707 59.249 55.414 67.956 46.707Z" class="MsftOfcResponsive_Stroke_daf49d" stroke="#DAF49D" stroke-width="0.999933" stroke-linecap="butt" stroke-linejoin="miter" stroke-miterlimit="4" stroke-opacity="1" fill="#DAF49D" fill-opacity="1"/><rect x="27.999" y="49" width="21" height="2" class="MsftOfcResponsive_Stroke_daf49d" stroke="#DAF49D" stroke-width="0.999933" stroke-linecap="butt" stroke-linejoin="miter" stroke-miterlimit="4" stroke-opacity="1" fill="#DAF49D" fill-opacity="1"/><path d="M67.956 58.707 66.542 57.293 59.249 64.586 55.956 61.293 54.542 62.707 59.249 67.414 67.956 58.707Z" class="MsftOfcResponsive_Stroke_daf49d" stroke="#DAF49D" stroke-width="0.999933" stroke-linecap="butt" stroke-linejoin="miter" stroke-miterlimit="4" stroke-opacity="1" fill="#DAF49D" fill-opacity="1"/><rect x="27.999" y="61" width="21" height="2" class="MsftOfcResponsive_Stroke_daf49d" stroke="#DAF49D" stroke-width="0.999933" stroke-linecap="butt" stroke-linejoin="miter" stroke-miterlimit="4" stroke-opacity="1" fill="#DAF49D" fill-opacity="1"/><path d="M67.956 70.707 66.542 69.293 59.249 76.586 55.956 73.293 54.542 74.707 59.249 79.414 67.956 70.707Z" class="MsftOfcResponsive_Stroke_daf49d" stroke="#DAF49D" stroke-width="0.999933" stroke-linecap="butt" stroke-linejoin="miter" stroke-miterlimit="4" stroke-opacity="1" fill="#DAF49D" fill-opacity="1"/><rect x="27.999" y="73" width="21" height="2" class="MsftOfcResponsive_Stroke_daf49d" stroke="#DAF49D" stroke-width="0.999933" stroke-linecap="butt" stroke-linejoin="miter" stroke-miterlimit="4" stroke-opacity="1" fill="#DAF49D" fill-opacity="1"/><path d="M74 14.979 59 14.979 59 12.979C58.9967 10.2189 56.7601 7.98231 54 7.979L42 7.979C39.2399 7.98231 37.0033 10.2189 37 12.979L37 14.979 22 14.979C19.7909 14.979 18 16.7699 18 18.979L18 84C18 86.2091 19.7909 88 22 88L74 88C76.2091 88 78 86.2091 78 84L78 18.979C78 16.7699 76.2091 14.979 74 14.979ZM35 16.979 39 16.979 39 12.979C39 11.3221 40.3431 9.979 42 9.979L54 9.979C55.6569 9.979 57 11.3221 57 12.979L57 16.979 61 16.979 61 25 35 25ZM76 84C76 85.1046 75.1046 86 74 86L22 86C20.8954 86 20 85.1046 20 84L20 18.979C20 17.8744 20.8954 16.979 22 16.979L33 16.979 33 27 63 27 63 16.979 74 16.979C75.1046 16.979 76 17.8744 76 18.979Z" class="MsftOfcResponsive_Stroke_daf49d" stroke="#DAF49D" stroke-width="0.999933" stroke-linecap="butt" stroke-linejoin="miter" stroke-miterlimit="4" stroke-opacity="1" fill="#DAF49D" fill-opacity="1"/></g></svg>