<svg viewBox="0 0 96 96" xmlns="http://www.w3.org/2000/svg" xmlns:xlink="http://www.w3.org/1999/xlink" id="Icons_Beaker_M" overflow="hidden"><style>
.MsftOfcResponsive_Fill_daf49d {
 fill:#DAF49D; 
}
.MsftOfcResponsive_Stroke_daf49d {
 stroke:#DAF49D; 
}
</style>
<g id="Icons"><path d="M37 10C38.6569 10 40 8.65685 40 7 40 5.34315 38.6569 4 37 4 35.3431 4 34 5.34315 34 7 34 8.65685 35.3431 10 37 10ZM37 6C37.5523 6 38 6.44772 38 7 38 7.55228 37.5523 8 37 8 36.4477 8 36 7.55228 36 7 36 6.44772 36.4477 6 37 6Z" class="MsftOfcResponsive_Stroke_daf49d MsftOfcResponsive_Fill_daf49d" stroke="#DAF49D" stroke-width="1" stroke-linecap="butt" stroke-linejoin="miter" stroke-miterlimit="4" stroke-opacity="1" fill="#DAF49D" fill-opacity="1"/><path d="M56 16C58.2091 16 60 14.2091 60 12 60 9.79086 58.2091 8 56 8 53.7909 8 52 9.79086 52 12 52 14.2091 53.7909 16 56 16ZM56 10C57.1046 10 58 10.8954 58 12 58 13.1046 57.1046 14 56 14 54.8954 14 54 13.1046 54 12 54 10.8954 54.8954 10 56 10Z" class="MsftOfcResponsive_Stroke_daf49d MsftOfcResponsive_Fill_daf49d" stroke="#DAF49D" stroke-width="1" stroke-linecap="butt" stroke-linejoin="miter" stroke-miterlimit="4" stroke-opacity="1" fill="#DAF49D" fill-opacity="1"/><path d="M40 28C43.3137 28 46 25.3137 46 22 46 18.6863 43.3137 16 40 16 36.6863 16 34 18.6863 34 22 34.0039 25.3121 36.6879 27.9961 40 28ZM40 18C42.2091 18 44 19.7909 44 22 44 24.2091 42.2091 26 40 26 37.7909 26 36 24.2091 36 22 36 19.7909 37.7909 18 40 18Z" class="MsftOfcResponsive_Stroke_daf49d MsftOfcResponsive_Fill_daf49d" stroke="#DAF49D" stroke-width="1" stroke-linecap="butt" stroke-linejoin="miter" stroke-miterlimit="4" stroke-opacity="1" fill="#DAF49D" fill-opacity="1"/><path d="M54 28C55.6569 28 57 26.6569 57 25 57 23.3431 55.6569 22 54 22 52.3431 22 51 23.3431 51 25 51 26.6569 52.3431 28 54 28ZM54 24C54.5523 24 55 24.4477 55 25 55 25.5523 54.5523 26 54 26 53.4477 26 53 25.5523 53 25 53 24.4477 53.4477 24 54 24Z" class="MsftOfcResponsive_Stroke_daf49d MsftOfcResponsive_Fill_daf49d" stroke="#DAF49D" stroke-width="1" stroke-linecap="butt" stroke-linejoin="miter" stroke-miterlimit="4" stroke-opacity="1" fill="#DAF49D" fill-opacity="1"/><path d="M74.924 32.617C74.7691 32.2434 74.4044 31.9999 74 32L22 32C21.4477 32.0001 21.0001 32.4479 21.0002 33.0002 21.0003 33.2653 21.1056 33.5195 21.293 33.707L23.535 35.95C24.4758 36.8854 25.0034 38.1583 25 39.485L25 87C25.0033 89.7601 27.2399 91.9967 30 92L66 92C68.7601 91.9967 70.9967 89.7601 71 87L71 39.485C70.9966 38.1583 71.5242 36.8854 72.465 35.95L74.707 33.707C74.9932 33.421 75.0788 32.9908 74.924 32.617ZM66 90 30 90C28.3431 90 27 88.6569 27 87L27 44.991C33.2785 45.0249 39.5312 44.1866 45.579 42.5 48.6346 41.5654 51.8053 41.0606 55 41 59.1118 40.9601 63.1929 41.7114 67.021 43.213 67.6687 43.4622 68.3294 43.6765 69 43.855L69 87C69 88.6569 67.6569 90 66 90ZM71.049 34.537C69.7371 35.8495 69.0001 37.6293 69 39.485L69 41.785C68.625 41.666 68.191 41.51 67.7 41.333 63.6525 39.7583 59.3429 38.9666 55 39 51.6349 39.0548 48.2941 39.5809 45.075 40.563 39.1936 42.2158 33.1091 43.0334 27 42.992L27 39.485C27.0003 37.63 26.2636 35.8508 24.952 34.539L24.431 34.017C24.422 34.008 24.425 34 24.438 34L71.562 34C71.575 34 71.578 34.008 71.569 34.017Z" class="MsftOfcResponsive_Stroke_daf49d MsftOfcResponsive_Fill_daf49d" stroke="#DAF49D" stroke-width="1" stroke-linecap="butt" stroke-linejoin="miter" stroke-miterlimit="4" stroke-opacity="1" fill="#DAF49D" fill-opacity="1"/><rect x="50" y="49" width="12" height="2" class="MsftOfcResponsive_Stroke_daf49d MsftOfcResponsive_Fill_daf49d" stroke="#DAF49D" stroke-width="1" stroke-linecap="butt" stroke-linejoin="miter" stroke-miterlimit="4" stroke-opacity="1" fill="#DAF49D" fill-opacity="1"/><rect x="50" y="57" width="12" height="2" class="MsftOfcResponsive_Stroke_daf49d MsftOfcResponsive_Fill_daf49d" stroke="#DAF49D" stroke-width="1" stroke-linecap="butt" stroke-linejoin="miter" stroke-miterlimit="4" stroke-opacity="1" fill="#DAF49D" fill-opacity="1"/><rect x="50" y="65" width="12" height="2" class="MsftOfcResponsive_Stroke_daf49d MsftOfcResponsive_Fill_daf49d" stroke="#DAF49D" stroke-width="1" stroke-linecap="butt" stroke-linejoin="miter" stroke-miterlimit="4" stroke-opacity="1" fill="#DAF49D" fill-opacity="1"/><rect x="50" y="73" width="12" height="2" class="MsftOfcResponsive_Stroke_daf49d MsftOfcResponsive_Fill_daf49d" stroke="#DAF49D" stroke-width="1" stroke-linecap="butt" stroke-linejoin="miter" stroke-miterlimit="4" stroke-opacity="1" fill="#DAF49D" fill-opacity="1"/><rect x="50" y="81" width="12" height="2" class="MsftOfcResponsive_Stroke_daf49d MsftOfcResponsive_Fill_daf49d" stroke="#DAF49D" stroke-width="1" stroke-linecap="butt" stroke-linejoin="miter" stroke-miterlimit="4" stroke-opacity="1" fill="#DAF49D" fill-opacity="1"/></g></svg>