<svg viewBox="0 0 96 96" xmlns="http://www.w3.org/2000/svg" xmlns:xlink="http://www.w3.org/1999/xlink" id="Icons_PetriDish_M" overflow="hidden"><style>
.MsftOfcResponsive_Fill_daf49d {
 fill:#DAF49D; 
}
.MsftOfcResponsive_Stroke_daf49d {
 stroke:#DAF49D; 
}
</style>
<g id="Icons"><path d="M32.774 60.158C30.342 60.158 28.508 61.305 28.508 62.825 28.508 64.345 30.342 65.492 32.774 65.492 35.206 65.492 37.041 64.345 37.041 62.825 37.041 61.305 35.207 60.158 32.774 60.158ZM32.774 63.492C31.9647 63.5695 31.1554 63.3447 30.502 62.861 30.502 62.661 31.38 62.161 32.774 62.161 34.091 62.161 35.026 62.629 35.026 62.828 35.026 63.007 34.091 63.492 32.774 63.492Z" class="MsftOfcResponsive_Stroke_daf49d MsftOfcResponsive_Fill_daf49d" stroke="#DAF49D" stroke-width="0.999955" stroke-linecap="butt" stroke-linejoin="miter" stroke-miterlimit="4" stroke-opacity="1" fill="#DAF49D" fill-opacity="1"/><path d="M58.774 50.492C61.207 50.492 63.041 49.345 63.041 47.825 63.041 46.305 61.207 45.158 58.774 45.158 56.341 45.158 54.508 46.305 54.508 47.825 54.508 49.345 56.342 50.492 58.774 50.492ZM58.774 47.158C60.091 47.158 61.026 47.633 61.026 47.825 61.026 48.017 60.091 48.492 58.774 48.492 57.9643 48.574 57.1534 48.3488 56.502 47.861 56.5 47.664 57.38 47.158 58.774 47.158Z" class="MsftOfcResponsive_Stroke_daf49d MsftOfcResponsive_Fill_daf49d" stroke="#DAF49D" stroke-width="0.999955" stroke-linecap="butt" stroke-linejoin="miter" stroke-miterlimit="4" stroke-opacity="1" fill="#DAF49D" fill-opacity="1"/><path d="M32.931 46.183C31.91 46.183 31.081 46.698 31.081 47.333 31.081 47.968 31.91 48.483 32.931 48.483 33.952 48.483 34.781 47.969 34.781 47.333 34.781 46.697 33.953 46.183 32.931 46.183Z" class="MsftOfcResponsive_Stroke_daf49d MsftOfcResponsive_Fill_daf49d" stroke="#DAF49D" stroke-width="0.999955" stroke-linecap="butt" stroke-linejoin="miter" stroke-miterlimit="4" stroke-opacity="1" fill="#DAF49D" fill-opacity="1"/><ellipse cx="77.498" cy="55.25" rx="2" ry="1.05" class="MsftOfcResponsive_Stroke_daf49d MsftOfcResponsive_Fill_daf49d" stroke="#DAF49D" stroke-width="0.999955" stroke-linecap="butt" stroke-linejoin="miter" stroke-miterlimit="4" stroke-opacity="1" fill="#DAF49D" fill-opacity="1"/><path d="M36.4 52.467C36.4 52.519 36.41 52.567 36.413 52.62 37.0983 52.728 37.7953 52.828 38.504 52.92 38.44 52.7789 38.4059 52.626 38.404 52.471 38.404 51.188 40.971 49.753 44.404 49.753 47.837 49.753 50.404 51.188 50.404 52.471 50.375 52.8599 50.1956 53.2221 49.904 53.481 50.704 53.463 51.482 53.428 52.257 53.387 52.3537 53.0912 52.4037 52.7822 52.405 52.471 52.405 49.825 48.892 47.753 44.405 47.753 39.918 47.753 36.4 49.821 36.4 52.467Z" class="MsftOfcResponsive_Stroke_daf49d MsftOfcResponsive_Fill_daf49d" stroke="#DAF49D" stroke-width="0.999955" stroke-linecap="butt" stroke-linejoin="miter" stroke-miterlimit="4" stroke-opacity="1" fill="#DAF49D" fill-opacity="1"/><path d="M68.829 56.661C67.8258 57.44 66.5653 57.8111 65.3 57.7 65.167 57.7 65.051 57.688 64.925 57.682 63.5997 57.984 62.233 58.2507 60.825 58.482 62.1551 59.3404 63.7183 59.7658 65.3 59.7 68.522 59.7 70.95 58.3 70.95 56.45 70.9474 56.2984 70.9283 56.1475 70.893 56 70.219 56.226 69.533 56.451 68.829 56.661Z" class="MsftOfcResponsive_Stroke_daf49d MsftOfcResponsive_Fill_daf49d" stroke="#DAF49D" stroke-width="0.999955" stroke-linecap="butt" stroke-linejoin="miter" stroke-miterlimit="4" stroke-opacity="1" fill="#DAF49D" fill-opacity="1"/><path d="M22.163 54.879C20.434 54.943 19.063 55.685 19.063 56.6 19.063 57.557 20.555 58.333 22.396 58.333 24.237 58.333 25.729 57.557 25.729 56.6 25.7242 56.4497 25.6848 56.3026 25.614 56.17 24.4153 55.7713 23.265 55.341 22.163 54.879Z" class="MsftOfcResponsive_Stroke_daf49d MsftOfcResponsive_Fill_daf49d" stroke="#DAF49D" stroke-width="0.999955" stroke-linecap="butt" stroke-linejoin="miter" stroke-miterlimit="4" stroke-opacity="1" fill="#DAF49D" fill-opacity="1"/><path d="M54.6 59.236C52.456 59.407 50.253 59.5 48 59.5 47.442 59.5 46.89 59.49 46.339 59.48 43.665 60.28 41.934 61.792 41.934 63.6 41.934 66.308 45.803 68.35 50.934 68.35 56.065 68.35 59.934 66.308 59.934 63.6 59.933 61.59 57.8 59.949 54.6 59.236ZM50.933 66.35C46.659 66.35 43.933 64.721 43.933 63.6 43.933 62.479 46.659 60.85 50.933 60.85 55.207 60.85 57.933 62.479 57.933 63.6 57.933 64.721 55.206 66.35 50.933 66.35Z" class="MsftOfcResponsive_Stroke_daf49d MsftOfcResponsive_Fill_daf49d" stroke="#DAF49D" stroke-width="0.999955" stroke-linecap="butt" stroke-linejoin="miter" stroke-miterlimit="4" stroke-opacity="1" fill="#DAF49D" fill-opacity="1"/><path d="M48 21.5C26.691 21.5 10 29.407 10 39.5L10 57C10 67.093 26.69 75 48 75 69.31 75 86 67.093 86 57L86 39.5C86 29.407 69.308 21.5 48 21.5ZM48 23.5C67.514 23.5 84 30.827 84 39.5 84 42.169 82.434 44.71 79.7 46.95 72.955 42.124 61.39 39 48 39 34.61 39 23.044 42.124 16.3 46.95 13.565 44.71 12 42.169 12 39.5 12 30.827 28.485 23.5 48 23.5ZM77.934 48.25C71.413 52.581 60.311 55.5 48 55.5 35.689 55.5 24.586 52.581 18.065 48.25 24.585 43.919 35.687 41 48 41 60.313 41 71.413 43.919 77.934 48.25ZM12 45.365C12.7625 46.4295 13.6506 47.3981 14.645 48.25 13.6506 49.1019 12.7625 50.0705 12 51.135ZM48 73C28.486 73 12 65.673 12 57 12 54.331 13.566 51.79 16.3 49.55 23.043 54.376 34.608 57.5 48 57.5 61.392 57.5 72.956 54.376 79.7 49.55 82.433 51.79 84 54.331 84 57 84 65.673 67.513 73 48 73ZM84 51.135C83.2375 50.0705 82.3494 49.1019 81.355 48.25 82.3494 47.3981 83.2375 46.4295 84 45.365Z" class="MsftOfcResponsive_Stroke_daf49d MsftOfcResponsive_Fill_daf49d" stroke="#DAF49D" stroke-width="0.999955" stroke-linecap="butt" stroke-linejoin="miter" stroke-miterlimit="4" stroke-opacity="1" fill="#DAF49D" fill-opacity="1"/></g></svg>