<svg viewBox="0 0 96 96" xmlns="http://www.w3.org/2000/svg" xmlns:xlink="http://www.w3.org/1999/xlink" id="Icons_House_M" overflow="hidden"><style>
.MsftOfcResponsive_Fill_daf49d {
 fill:#DAF49D; 
}
.MsftOfcResponsive_Stroke_daf49d {
 stroke:#DAF49D; 
}
</style>
<g id="Icons"><path d="M73 16.978 63 16.978 63 25.846 48 11.6 6.567 50.958 13.056 57.446 18 52.764 18 84.976 43 84.986 43 59.994 53 59.994 53 84.994 78 85 78 52.722 82.969 57.422 89.433 50.959 73 35.346ZM65 18.978 71 18.978 71 33.446 65 27.746ZM76 83 55 82.991 55 57.991 41 57.991 41 82.985 20 82.977 20 50.87 48 24.354 76 50.831ZM13.093 54.656 9.433 51 48 14.356 86.567 51 82.93 54.632 48 21.6Z" class="MsftOfcResponsive_Stroke_daf49d MsftOfcResponsive_Fill_daf49d" stroke="#DAF49D" stroke-width="0.999974" stroke-linecap="butt" stroke-linejoin="miter" stroke-miterlimit="4" stroke-opacity="1" fill="#DAF49D" fill-opacity="1"/><path d="M24 69.978 36 69.978 36 57.978 24 57.978ZM26 59.978 34 59.978 34 67.978 26 67.978Z" class="MsftOfcResponsive_Stroke_daf49d MsftOfcResponsive_Fill_daf49d" stroke="#DAF49D" stroke-width="0.999974" stroke-linecap="butt" stroke-linejoin="miter" stroke-miterlimit="4" stroke-opacity="1" fill="#DAF49D" fill-opacity="1"/><path d="M72 57.978 60 57.978 60 69.978 72 69.978ZM70 67.978 62 67.978 62 59.978 70 59.978Z" class="MsftOfcResponsive_Stroke_daf49d MsftOfcResponsive_Fill_daf49d" stroke="#DAF49D" stroke-width="0.999974" stroke-linecap="butt" stroke-linejoin="miter" stroke-miterlimit="4" stroke-opacity="1" fill="#DAF49D" fill-opacity="1"/></g></svg>