<svg viewBox="0 0 96 96" xmlns="http://www.w3.org/2000/svg" xmlns:xlink="http://www.w3.org/1999/xlink" id="Icons_Woman_M" overflow="hidden"><style>
.MsftOfcThm_Text2_Fill_v2 {
 fill:#252845; 
}
.MsftOfcThm_Text2_Stroke_v2 {
 stroke:#252845; 
}
</style>
<g id="Icons"><path d="M48.028 19C52.4463 19 56.028 15.4183 56.028 11 56.028 6.58172 52.4463 3 48.028 3 43.6097 3 40.028 6.58172 40.028 11 40.033 15.4162 43.6118 18.995 48.028 19ZM48.028 5C51.3417 5 54.028 7.68629 54.028 11 54.028 14.3137 51.3417 17 48.028 17 44.7143 17 42.028 14.3137 42.028 11 42.0313 7.68766 44.7157 5.00331 48.028 5Z" class="MsftOfcThm_Text2_Stroke_v2 MsftOfcThm_Text2_Fill_v2" stroke="#252845" stroke-width="1.00001" stroke-linecap="butt" stroke-linejoin="miter" stroke-miterlimit="4" stroke-opacity="1" fill="#252845" fill-opacity="1"/><path d="M65.959 50.979 63 29.97C62.9142 29.253 62.6983 28.5576 62.363 27.918 62.1504 27.5327 61.8998 27.1695 61.615 26.834 59.5376 24.62 56.943 22.9566 54.064 21.993 52.1536 21.333 50.1462 20.9974 48.125 21 48.091 21 48.062 21.017 48.025 21.02 47.988 21.023 47.963 21 47.925 21 45.9098 20.99 43.9077 21.3242 42.005 21.988 39.1027 22.9601 36.4888 24.6408 34.4 26.878 34.131 27.2006 33.8939 27.5486 33.692 27.917 33.3564 28.5568 33.1405 29.2526 33.055 29.97L30.093 51.025C29.806 54.087 31.268 55.377 32.545 55.925 33.0528 56.1408 33.6395 55.9046 33.856 55.397 34.0725 54.8889 33.8361 54.3015 33.3281 54.085 33.328 54.085 33.328 54.085 33.328 54.085 32.703 53.819 31.896 53.233 32.079 51.263L35.042 30.25C35.0951 29.7724 35.234 29.3083 35.452 28.88 35.5814 28.6408 35.7313 28.4133 35.9 28.2 37.7586 26.2217 40.0799 24.7365 42.655 23.878 44.3183 23.2948 46.0684 22.9979 47.831 23L47.926 23C47.9597 22.9949 47.9931 22.9879 48.026 22.979 48.0589 22.9879 48.0923 22.9949 48.126 23L48.221 23C49.9877 23 51.7415 23.2996 53.408 23.886 55.9596 24.7358 58.2614 26.2037 60.108 28.159 60.2948 28.3828 60.4592 28.6242 60.599 28.88 60.8177 29.3081 60.9569 29.7722 61.01 30.25L63.967 51.211C64.155 53.229 63.348 53.811 62.723 54.08 62.2149 54.2964 61.9784 54.8838 62.1949 55.3919 62.3528 55.7627 62.7179 56.0025 63.121 56 63.2557 56.0003 63.3891 55.9731 63.513 55.92 64.789 55.377 66.25 54.087 65.959 50.979Z" class="MsftOfcThm_Text2_Stroke_v2 MsftOfcThm_Text2_Fill_v2" stroke="#252845" stroke-width="1.00001" stroke-linecap="butt" stroke-linejoin="miter" stroke-miterlimit="4" stroke-opacity="1" fill="#252845" fill-opacity="1"/><path d="M56.02 40.043C56.02 40.028 56.028 40.015 56.028 40L56.028 32C56.028 31.4477 55.5803 31 55.028 31 54.4757 31 54.028 31.4477 54.028 32L54.028 40C54.028 40.024 54.041 40.045 54.042 40.069 54.0212 40.2072 54.0293 40.3482 54.066 40.483L60.707 64 35.347 64 41.991 40.27 42.028 32C42.028 31.4477 41.5803 31 41.028 31 40.4757 31 40.028 31.4477 40.028 32L40.028 39.863 32.71 66 39.028 66 39.028 93 57.028 93 57.028 66 63.35 66ZM41.028 66 47.028 66 47.028 91 41.028 91ZM55.028 91 49.028 91 49.028 66 55.028 66Z" class="MsftOfcThm_Text2_Stroke_v2 MsftOfcThm_Text2_Fill_v2" stroke="#252845" stroke-width="1.00001" stroke-linecap="butt" stroke-linejoin="miter" stroke-miterlimit="4" stroke-opacity="1" fill="#252845" fill-opacity="1"/></g></svg>