<svg viewBox="0 0 96 96" xmlns="http://www.w3.org/2000/svg" xmlns:xlink="http://www.w3.org/1999/xlink" id="Icons_PresentationBarChart_RTL_M" overflow="hidden"><style>
.MsftOfcThm_Text2_Fill_v2 {
 fill:#252845; 
}
.MsftOfcThm_Text2_Stroke_v2 {
 stroke:#252845; 
}
</style>
<g id="Icons"><path d="M84 19C84.5523 19 85 18.5523 85 18 85 17.4477 84.5523 17 84 17L49 17 49 13C49 12.4477 48.5523 12 48 12 47.4477 12 47 12.4477 47 13L47 17 12 17C11.4477 17 11 17.4477 11 18 11 18.5523 11.4477 19 12 19L16 19 16 60 12 60C11.4477 60 11 60.4477 11 61 11 61.5523 11.4477 62 12 62L45.586 62 27.793 79.793C27.3957 80.1767 27.3847 80.8097 27.7684 81.207 28.1521 81.6043 28.7852 81.6153 29.1824 81.2316 29.1908 81.2235 29.1989 81.2153 29.207 81.207L47 63.414 47 84C47 84.5523 47.4477 85 48 85 48.5523 85 49 84.5523 49 84L49 63.414 66.793 81.207C67.1903 81.5907 67.8233 81.5797 68.207 81.1824 68.5813 80.7949 68.5813 80.1805 68.207 79.793L50.414 62 84 62C84.5523 62 85 61.5523 85 61 85 60.4477 84.5523 60 84 60L80 60 80 19ZM78 60 18 60 18 19 78 19Z" class="MsftOfcThm_Text2_Stroke_v2 MsftOfcThm_Text2_Fill_v2" stroke="#252845" stroke-width="1.00009" stroke-linecap="butt" stroke-linejoin="miter" stroke-miterlimit="4" stroke-opacity="1" fill="#252845" fill-opacity="1"/><path d="M32 54 40 54 40 26 32 26ZM34 28 38 28 38 52 34 52Z" class="MsftOfcThm_Text2_Stroke_v2 MsftOfcThm_Text2_Fill_v2" stroke="#252845" stroke-width="1.00009" stroke-linecap="butt" stroke-linejoin="miter" stroke-miterlimit="4" stroke-opacity="1" fill="#252845" fill-opacity="1"/><path d="M44 54 52 54 52 35 44 35ZM46 37 50 37 50 52 46 52Z" class="MsftOfcThm_Text2_Stroke_v2 MsftOfcThm_Text2_Fill_v2" stroke="#252845" stroke-width="1.00009" stroke-linecap="butt" stroke-linejoin="miter" stroke-miterlimit="4" stroke-opacity="1" fill="#252845" fill-opacity="1"/><path d="M64 42 56 42 56 54 64 54ZM62 52 58 52 58 44 62 44Z" class="MsftOfcThm_Text2_Stroke_v2 MsftOfcThm_Text2_Fill_v2" stroke="#252845" stroke-width="1.00009" stroke-linecap="butt" stroke-linejoin="miter" stroke-miterlimit="4" stroke-opacity="1" fill="#252845" fill-opacity="1"/></g></svg>