<svg viewBox="0 0 96 96" xmlns="http://www.w3.org/2000/svg" xmlns:xlink="http://www.w3.org/1999/xlink" id="Icons_GroupOfWomen_M" overflow="hidden"><style>
.MsftOfcThm_Text2_Stroke_v2 {
 stroke:#252845; 
}
</style>
<g id="Icons"><path d="M71.979 22.076C75.866 22.076 79.017 18.925 79.017 15.038 79.017 11.151 75.866 8 71.979 8 68.092 8 64.941 11.151 64.941 15.038 64.9454 18.9232 68.0938 22.0716 71.979 22.076ZM71.979 10C74.7614 10 77.017 12.2556 77.017 15.038 77.017 17.8204 74.7614 20.076 71.979 20.076 69.1966 20.076 66.941 17.8204 66.941 15.038 66.9443 12.257 69.198 10.0033 71.979 10Z" class="MsftOfcThm_Text2_Stroke_v2" stroke="#252845" stroke-width="0.999917" stroke-linecap="butt" stroke-linejoin="miter" stroke-miterlimit="4" fill="#404040" fill-opacity="1"/><path d="M23.979 22.076C27.866 22.076 31.017 18.925 31.017 15.038 31.017 11.151 27.866 8 23.979 8 20.092 8 16.941 11.151 16.941 15.038 16.9454 18.9232 20.0938 22.0716 23.979 22.076ZM23.979 10C26.7614 10 29.017 12.2556 29.017 15.038 29.017 17.8204 26.7614 20.076 23.979 20.076 21.1966 20.076 18.941 17.8204 18.941 15.038 18.9443 12.257 21.198 10.0033 23.979 10Z" class="MsftOfcThm_Text2_Stroke_v2" stroke="#252845" stroke-width="0.999917" stroke-linecap="butt" stroke-linejoin="miter" stroke-miterlimit="4" fill="#404040" fill-opacity="1"/><path d="M47.979 22.076C51.866 22.076 55.017 18.925 55.017 15.038 55.017 11.151 51.866 8 47.979 8 44.092 8 40.941 11.151 40.941 15.038 40.9454 18.9232 44.0938 22.0716 47.979 22.076ZM47.979 10C50.7614 10 53.017 12.2556 53.017 15.038 53.017 17.8204 50.7614 20.076 47.979 20.076 45.1966 20.076 42.941 17.8204 42.941 15.038 42.9443 12.257 45.198 10.0033 47.979 10Z" class="MsftOfcThm_Text2_Stroke_v2" stroke="#252845" stroke-width="0.999917" stroke-linecap="butt" stroke-linejoin="miter" stroke-miterlimit="4" fill="#404040" fill-opacity="1"/><path d="M88.89 52.221 86 32.486C85.9188 31.8534 85.7276 31.2398 85.435 30.673 85.2253 30.2842 84.9749 29.9188 84.688 29.583 82.7262 27.5015 80.2788 25.9388 77.565 25.035 73.9464 23.7943 70.0176 23.7943 66.399 25.035 64.6449 25.6195 62.9962 26.4822 61.516 27.59 61.729 27.79 61.941 28.001 62.144 28.216L62.239 28.322C62.4532 28.5794 62.6516 28.8495 62.833 29.131 64.1138 28.1833 65.5346 27.4411 67.044 26.931 68.6331 26.3841 70.3024 26.1066 71.983 26.11 76.2172 26.1285 80.2636 27.8604 83.2 30.911 83.3836 31.1293 83.5438 31.3663 83.678 31.618 83.8603 31.9806 83.9784 32.3721 84.027 32.775L86.91 52.5C87.098 53.859 86.752 54.67 85.884 54.91 85.3516 55.0569 85.039 55.6075 85.1859 56.1399 85.3054 56.5733 85.6995 56.8736 86.149 56.874 86.2392 56.8738 86.329 56.8617 86.416 56.838 88.293 56.321 89.219 54.6 88.89 52.221Z" class="MsftOfcThm_Text2_Stroke_v2" stroke="#252845" stroke-width="0.999917" stroke-linecap="butt" stroke-linejoin="miter" stroke-miterlimit="4" fill="#404040" fill-opacity="1"/><path d="M79.978 45.864 79.978 35.979C79.978 35.4267 79.5303 34.979 78.978 34.979 78.4257 34.979 77.978 35.4267 77.978 35.979L77.978 46 82.663 63 62.815 63 63.371 65 63.978 65 63.978 88 79.969 88 79.974 65 85.3 65ZM65.978 65 70.978 65 70.978 86 65.978 86ZM77.969 86 72.979 86 72.979 65 77.979 65Z" class="MsftOfcThm_Text2_Stroke_v2" stroke="#252845" stroke-width="0.999917" stroke-linecap="butt" stroke-linejoin="miter" stroke-miterlimit="4" fill="#404040" fill-opacity="1"/><path d="M17.941 46.268 17.978 35.979C17.978 35.4267 17.5303 34.979 16.978 34.979 16.4257 34.979 15.978 35.4267 15.978 35.979L15.978 45.864 10.664 65 15.978 65 15.978 88 31.969 88 31.969 65 32.583 65 33.138 63 13.294 63ZM17.978 65 22.978 65 22.978 86 17.978 86ZM29.969 86 24.979 86 24.979 65 29.979 65Z" class="MsftOfcThm_Text2_Stroke_v2" stroke="#252845" stroke-width="0.999917" stroke-linecap="butt" stroke-linejoin="miter" stroke-miterlimit="4" fill="#404040" fill-opacity="1"/><path d="M10.022 54.9C9.191 54.645 8.863 53.839 9.046 52.513L11.933 32.779C11.9813 32.3756 12.0998 31.9837 12.283 31.621 12.407 31.3857 12.5541 31.1633 12.722 30.957 14.4645 29.1105 16.6382 27.7254 19.048 26.926 20.6371 26.379 22.3064 26.1015 23.987 26.105 27.2757 26.1162 30.4755 27.174 33.123 29.125 33.2977 28.8536 33.4883 28.5928 33.694 28.344L33.794 28.234C34.004 28.011 34.223 27.799 34.443 27.586 32.9656 26.4818 31.3207 25.6215 29.571 25.038 25.9524 23.7973 22.0236 23.7973 18.405 25.038 15.6688 25.9499 13.2028 27.5291 11.23 29.633 10.9587 29.9571 10.7214 30.3083 10.522 30.681 10.2286 31.2475 10.0371 31.8612 9.956 32.494L7.066 52.229C6.747 54.544 7.633 56.256 9.437 56.809 9.96134 56.9824 10.527 56.698 10.7005 56.1736 10.8739 55.6493 10.5894 55.0836 10.0651 54.9102 10.0508 54.9055 10.0365 54.9011 10.022 54.897Z" class="MsftOfcThm_Text2_Stroke_v2" stroke="#252845" stroke-width="0.999917" stroke-linecap="butt" stroke-linejoin="miter" stroke-miterlimit="4" fill="#404040" fill-opacity="1"/><path d="M64.89 52.221 62 32.486C61.9188 31.8534 61.7276 31.2398 61.435 30.673 61.2254 30.2842 60.9749 29.9188 60.688 29.583 58.7262 27.5015 56.2788 25.9388 53.565 25.035 49.9464 23.7943 46.0176 23.7943 42.399 25.035 39.6628 25.9469 37.1968 27.5261 35.224 29.63 34.9527 29.9541 34.7154 30.3053 34.516 30.678 34.2226 31.2445 34.0311 31.8582 33.95 32.491L31.066 52.229C30.747 54.544 31.633 56.256 33.437 56.809 33.9613 56.9824 34.527 56.698 34.7005 56.1736 34.8739 55.6493 34.5894 55.0836 34.0651 54.9102 34.0508 54.9055 34.0365 54.9011 34.022 54.897 33.191 54.642 32.863 53.836 33.046 52.51L35.933 32.776C35.9813 32.3726 36.0998 31.9807 36.283 31.618 36.407 31.3827 36.5541 31.1603 36.722 30.954 38.4645 29.1075 40.6382 27.7224 43.048 26.923 44.6371 26.376 46.3064 26.0985 47.987 26.102 52.221 26.1237 56.2659 27.8584 59.2 30.911 59.3836 31.1293 59.5438 31.3663 59.678 31.618 59.8603 31.9806 59.9784 32.3721 60.027 32.775L62.91 52.5C63.098 53.859 62.752 54.67 61.884 54.91 61.3516 55.0569 61.039 55.6075 61.1859 56.1399 61.3054 56.5733 61.6995 56.8736 62.149 56.874 62.2392 56.8738 62.329 56.8617 62.416 56.838 64.293 56.321 65.219 54.6 64.89 52.221Z" class="MsftOfcThm_Text2_Stroke_v2" stroke="#252845" stroke-width="0.999917" stroke-linecap="butt" stroke-linejoin="miter" stroke-miterlimit="4" fill="#404040" fill-opacity="1"/><path d="M55.978 45.864 55.978 35.979C55.978 35.4267 55.5303 34.979 54.978 34.979 54.4257 34.979 53.978 35.4267 53.978 35.979L53.978 46 58.663 63 37.294 63 41.941 46.268 41.978 35.979C41.978 35.4267 41.5303 34.979 40.978 34.979 40.4257 34.979 39.978 35.4267 39.978 35.979L39.978 45.864 34.664 65 39.978 65 39.978 88 55.969 88 55.969 65 61.3 65ZM41.978 65 46.978 65 46.978 86 41.978 86ZM53.969 86 48.979 86 48.979 65 53.974 65Z" class="MsftOfcThm_Text2_Stroke_v2" stroke="#252845" stroke-width="0.999917" stroke-linecap="butt" stroke-linejoin="miter" stroke-miterlimit="4" fill="#404040" fill-opacity="1"/></g></svg>